<?xml version="1.0" encoding="UTF-8" standalone="no"?>
<!-- Created with Inkscape (http://www.inkscape.org/) -->

<svg
   xmlns:osb="http://www.openswatchbook.org/uri/2009/osb"
   xmlns:dc="http://purl.org/dc/elements/1.1/"
   xmlns:cc="http://creativecommons.org/ns#"
   xmlns:rdf="http://www.w3.org/1999/02/22-rdf-syntax-ns#"
   xmlns:svg="http://www.w3.org/2000/svg"
   xmlns="http://www.w3.org/2000/svg"
   xmlns:xlink="http://www.w3.org/1999/xlink"
   xmlns:sodipodi="http://sodipodi.sourceforge.net/DTD/sodipodi-0.dtd"
   xmlns:inkscape="http://www.inkscape.org/namespaces/inkscape"
   width="210mm"
   height="297mm"
   viewBox="0 0 744.09448819 1052.3622047"
   id="svg2"
   version="1.1"
   inkscape:version="0.91 r13725"
   sodipodi:docname="MooTag.svg">
  <defs
     id="defs4">
    <linearGradient
       inkscape:collect="always"
       id="linearGradient6857">
      <stop
         style="stop-color:#ffcc00;stop-opacity:1;"
         offset="0"
         id="stop6859" />
      <stop
         style="stop-color:#ffcc00;stop-opacity:0;"
         offset="1"
         id="stop6861" />
    </linearGradient>
    <linearGradient
       inkscape:collect="always"
       id="linearGradient6847">
      <stop
         style="stop-color:#ffcc00;stop-opacity:1;"
         offset="0"
         id="stop6849" />
      <stop
         style="stop-color:#ffcc00;stop-opacity:0;"
         offset="1"
         id="stop6851" />
    </linearGradient>
    <inkscape:perspective
       sodipodi:type="inkscape:persp3d"
       inkscape:vp_x="0 : 526.1811 : 1"
       inkscape:vp_y="0 : 1000 : 0"
       inkscape:vp_z="744.09449 : 526.1811 : 1"
       inkscape:persp3d-origin="372.04724 : 350.7874 : 1"
       id="perspective6843" />
    <linearGradient
       inkscape:collect="always"
       id="linearGradient6825">
      <stop
         style="stop-color:#ffcc00;stop-opacity:1;"
         offset="0"
         id="stop6827" />
      <stop
         style="stop-color:#ffcc00;stop-opacity:0;"
         offset="1"
         id="stop6829" />
    </linearGradient>
    <linearGradient
       inkscape:collect="always"
       id="linearGradient6375">
      <stop
         style="stop-color:#ff6600;stop-opacity:1;"
         offset="0"
         id="stop6377" />
      <stop
         style="stop-color:#ff6600;stop-opacity:0;"
         offset="1"
         id="stop6379" />
    </linearGradient>
    <linearGradient
       inkscape:collect="always"
       id="linearGradient6365">
      <stop
         style="stop-color:#ff6600;stop-opacity:1;"
         offset="0"
         id="stop6367" />
      <stop
         style="stop-color:#ff6600;stop-opacity:0;"
         offset="1"
         id="stop6369" />
    </linearGradient>
    <linearGradient
       inkscape:collect="always"
       id="linearGradient6302">
      <stop
         style="stop-color:#ff6600;stop-opacity:1;"
         offset="0"
         id="stop6304" />
      <stop
         style="stop-color:#ff6600;stop-opacity:0;"
         offset="1"
         id="stop6306" />
    </linearGradient>
    <linearGradient
       id="linearGradient5584"
       osb:paint="solid">
      <stop
         style="stop-color:#d68f22;stop-opacity:1;"
         offset="0"
         id="stop5586" />
    </linearGradient>
    <linearGradient
       inkscape:collect="always"
       xlink:href="#linearGradient5584"
       id="linearGradient5588"
       x1="200.49353"
       y1="249.54348"
       x2="358.46059"
       y2="249.54348"
       gradientUnits="userSpaceOnUse" />
    <linearGradient
       inkscape:collect="always"
       xlink:href="#linearGradient6302"
       id="linearGradient6308"
       x1="273.6553"
       y1="450.46234"
       x2="271.72195"
       y2="312.07144"
       gradientUnits="userSpaceOnUse"
       gradientTransform="translate(0,-0.50507627)" />
    <clipPath
       clipPathUnits="userSpaceOnUse"
       id="clipPath6327">
      <rect
         style="opacity:0.97000002;fill:#ff6600;fill-opacity:1;fill-rule:nonzero;stroke:none;stroke-width:0.71399999;stroke-miterlimit:4;stroke-dasharray:none;stroke-opacity:1"
         id="rect6329"
         width="298.50006"
         height="213.14218"
         x="128.79445"
         y="350.81125" />
    </clipPath>
    <linearGradient
       inkscape:collect="always"
       xlink:href="#linearGradient6365"
       id="linearGradient6371"
       x1="105.74237"
       y1="526.32031"
       x2="271.73355"
       y2="471.26703"
       gradientUnits="userSpaceOnUse" />
    <linearGradient
       inkscape:collect="always"
       xlink:href="#linearGradient6375"
       id="linearGradient6381"
       x1="382.08618"
       y1="525.31836"
       x2="322.74625"
       y2="480.36655"
       gradientUnits="userSpaceOnUse" />
    <linearGradient
       inkscape:collect="always"
       xlink:href="#linearGradient6375"
       id="linearGradient6559"
       x1="395.93033"
       y1="300.70108"
       x2="428.59659"
       y2="294.9614"
       gradientUnits="userSpaceOnUse"
       gradientTransform="translate(-37.375644,13.637059)" />
    <linearGradient
       inkscape:collect="always"
       xlink:href="#linearGradient6375"
       id="linearGradient6712"
       x1="136.53479"
       y1="294.08319"
       x2="86.293022"
       y2="285.7569"
       gradientUnits="userSpaceOnUse"
       gradientTransform="translate(61.568543,25.912718)" />
    <linearGradient
       inkscape:collect="always"
       xlink:href="#linearGradient6825"
       id="linearGradient6831"
       x1="46.575996"
       y1="338.27411"
       x2="103.62788"
       y2="271.13129"
       gradientUnits="userSpaceOnUse" />
    <linearGradient
       inkscape:collect="always"
       xlink:href="#linearGradient6825"
       id="linearGradient6841"
       x1="510.2532"
       y1="290.23245"
       x2="457.3858"
       y2="273.08957"
       gradientUnits="userSpaceOnUse"
       gradientTransform="translate(-14.647212,4.5456865)" />
    <linearGradient
       inkscape:collect="always"
       xlink:href="#linearGradient6847"
       id="linearGradient6853"
       x1="146.12234"
       y1="379.53394"
       x2="122.10159"
       y2="326.67679"
       gradientUnits="userSpaceOnUse" />
    <linearGradient
       inkscape:collect="always"
       xlink:href="#linearGradient6857"
       id="linearGradient6863"
       x1="393.11029"
       y1="378.39532"
       x2="421.68649"
       y2="286.25244"
       gradientUnits="userSpaceOnUse"
       gradientTransform="translate(-14.219182,4.0152328)" />
    <linearGradient
       inkscape:collect="always"
       xlink:href="#linearGradient6365"
       id="linearGradient4280"
       x1="-33.213131"
       y1="525.10333"
       x2="88.503563"
       y2="448.00821"
       gradientUnits="userSpaceOnUse" />
    <linearGradient
       inkscape:collect="always"
       xlink:href="#linearGradient6365"
       id="linearGradient4311"
       gradientUnits="userSpaceOnUse"
       x1="-33.213131"
       y1="525.10333"
       x2="88.503563"
       y2="448.00821" />
  </defs>
  <sodipodi:namedview
     id="base"
     pagecolor="#ffffff"
     bordercolor="#666666"
     borderopacity="1.0"
     inkscape:pageopacity="0.0"
     inkscape:pageshadow="2"
     inkscape:zoom="2.12"
     inkscape:cx="172.5184"
     inkscape:cy="682.54274"
     inkscape:document-units="px"
     inkscape:current-layer="layer1"
     showgrid="false"
     showguides="false"
     inkscape:window-width="1920"
     inkscape:window-height="1003"
     inkscape:window-x="-9"
     inkscape:window-y="-9"
     inkscape:window-maximized="1" />
  <metadata
     id="metadata7">
    <rdf:RDF>
      <cc:Work
         rdf:about="">
        <dc:format>image/svg+xml</dc:format>
        <dc:type
           rdf:resource="http://purl.org/dc/dcmitype/StillImage" />
        <dc:title />
      </cc:Work>
    </rdf:RDF>
  </metadata>
  <g
     inkscape:groupmode="layer"
     id="layer4"
     inkscape:label="Layer 4" />
  <g
     inkscape:groupmode="layer"
     id="layer2"
     inkscape:label="Layer 2" />
  <g
     inkscape:label="Layer 1"
     inkscape:groupmode="layer"
     id="layer1"
     style="display:inline">
    <ellipse
       style="opacity:0;fill:#aa4400"
       id="path5630"
       cx="434.11304"
       cy="265.95844"
       rx="81.064743"
       ry="91.923882" />
    <g
       id="g4322"
       inkscape:export-xdpi="90"
       inkscape:export-ydpi="90">
      <path
         transform="matrix(-0.19338229,-0.20186091,-0.64346823,0.6164411,418.96744,135.04931)"
         inkscape:transform-center-y="-13.897046"
         inkscape:transform-center-x="4.9074224"
         d="m 32.075469,324.06031 c 59.940956,-25.50679 58.08904,-46.75253 110.149041,-7.59553 52.06001,39.157 31.13417,43.27042 23.25322,107.9342 -7.88096,64.66379 11.44435,73.68285 -48.4966,99.18964 -59.94096,25.50679 -53.040367,5.32777 -105.100372,-33.82923 -52.060005,-39.15699 -69.533397,-26.93032 -61.652446,-91.5941 7.880952,-64.66379 21.9062,-48.59819 81.847157,-74.10498 z"
         inkscape:randomized="0"
         inkscape:rounded="0.59"
         inkscape:flatsided="false"
         sodipodi:arg2="-0.92591985"
         sodipodi:arg1="-1.9731174"
         sodipodi:r2="120.46786"
         sodipodi:r1="96.37429"
         sodipodi:cy="412.73956"
         sodipodi:cx="69.811317"
         sodipodi:sides="3"
         id="path4257-1"
         style="display:inline;opacity:1;fill:#aa4400;fill-opacity:1;fill-rule:nonzero;stroke:#000000;stroke-width:0.71399999;stroke-miterlimit:4;stroke-dasharray:none;stroke-opacity:1"
         sodipodi:type="star" />
      <path
         transform="matrix(-0.19338229,-0.20186091,-0.64346823,0.6164411,419.43913,135.04933)"
         inkscape:transform-center-y="-13.897046"
         inkscape:transform-center-x="4.9074224"
         d="m 32.075469,324.06031 c 59.940956,-25.50679 58.08904,-46.75253 110.149041,-7.59553 52.06001,39.157 31.13417,43.27042 23.25322,107.9342 -7.88096,64.66379 11.44435,73.68285 -48.4966,99.18964 -59.94096,25.50679 -53.040367,5.32777 -105.100372,-33.82923 -52.060005,-39.15699 -69.533397,-26.93032 -61.652446,-91.5941 7.880952,-64.66379 21.9062,-48.59819 81.847157,-74.10498 z"
         inkscape:randomized="0"
         inkscape:rounded="0.59"
         inkscape:flatsided="false"
         sodipodi:arg2="-0.92591985"
         sodipodi:arg1="-1.9731174"
         sodipodi:r2="120.46786"
         sodipodi:r1="96.37429"
         sodipodi:cy="412.73956"
         sodipodi:cx="69.811317"
         sodipodi:sides="3"
         id="path4257-2"
         style="display:inline;opacity:1;fill:url(#linearGradient4280);fill-opacity:1;fill-rule:nonzero;stroke:#000000;stroke-width:0.71399999;stroke-miterlimit:4;stroke-dasharray:none;stroke-opacity:1"
         sodipodi:type="star" />
      <path
         transform="matrix(0.19338229,-0.20186091,0.64346823,0.6164411,132.38404,140.18272)"
         inkscape:transform-center-y="-13.897046"
         inkscape:transform-center-x="-4.9074254"
         d="m 32.075469,324.06031 c 59.940956,-25.50679 58.08904,-46.75253 110.149041,-7.59553 52.06001,39.157 31.13417,43.27042 23.25322,107.9342 -7.88096,64.66379 11.44435,73.68285 -48.4966,99.18964 -59.94096,25.50679 -53.040367,5.32777 -105.100372,-33.82923 -52.060005,-39.15699 -69.533397,-26.93032 -61.652446,-91.5941 7.880952,-64.66379 21.9062,-48.59819 81.847157,-74.10498 z"
         inkscape:randomized="0"
         inkscape:rounded="0.59"
         inkscape:flatsided="false"
         sodipodi:arg2="-0.92591985"
         sodipodi:arg1="-1.9731174"
         sodipodi:r2="120.46786"
         sodipodi:r1="96.37429"
         sodipodi:cy="412.73956"
         sodipodi:cx="69.811317"
         sodipodi:sides="3"
         id="path4257"
         style="display:inline;opacity:1;fill:#aa4400;fill-opacity:1;fill-rule:nonzero;stroke:#000000;stroke-width:0.71399999;stroke-miterlimit:4;stroke-dasharray:none;stroke-opacity:1"
         sodipodi:type="star" />
      <path
         transform="matrix(0.19338229,-0.20186091,0.64346823,0.6164411,131.6407,139.7663)"
         inkscape:transform-center-y="-13.897046"
         inkscape:transform-center-x="-4.9074263"
         d="m 32.075469,324.06031 c 59.940956,-25.50679 58.08904,-46.75253 110.149041,-7.59553 52.06001,39.157 31.13417,43.27042 23.25322,107.9342 -7.88096,64.66379 11.44435,73.68285 -48.4966,99.18964 -59.94096,25.50679 -53.040367,5.32777 -105.100372,-33.82923 -52.060005,-39.15699 -69.533397,-26.93032 -61.652446,-91.5941 7.880952,-64.66379 21.9062,-48.59819 81.847157,-74.10498 z"
         inkscape:randomized="0"
         inkscape:rounded="0.59"
         inkscape:flatsided="false"
         sodipodi:arg2="-0.92591985"
         sodipodi:arg1="-1.9731174"
         sodipodi:r2="120.46786"
         sodipodi:r1="96.37429"
         sodipodi:cy="412.73956"
         sodipodi:cx="69.811317"
         sodipodi:sides="3"
         id="path4257-2-7"
         style="display:inline;opacity:1;fill:url(#linearGradient4311);fill-opacity:1;fill-rule:nonzero;stroke:#000000;stroke-width:0.71399999;stroke-miterlimit:4;stroke-dasharray:none;stroke-opacity:1"
         sodipodi:type="star" />
      <g
         id="g6922">
        <path
           style="opacity:1;fill:#ffe680;fill-opacity:1;fill-rule:nonzero;stroke:#000000;stroke-width:0.71399999;stroke-miterlimit:4;stroke-dasharray:none;stroke-opacity:1"
           d="m 480.47388,192.98865 c -3.3723,0.3065 -28.43394,32.49251 -31.11328,36.08204 -2.63118,3.525 -26.47448,36.80503 -29.45898,44.83984 -13.33301,4.20176 -56.6017,7.34195 -61.7168,7.92773 -2.18425,0.25014 -11.24298,1.61207 -21.96875,3.01368 -3.16386,6.01675 -5.20082,10.61743 -5.13281,12.30859 0.20456,5.08764 39.22361,36.33797 44.35351,37.8457 7.02111,2.06357 75.45257,2.91829 81.67383,-0.79297 1.72659,-1.02999 4.09877,-8.55477 6.31446,-17.75195 0.0467,-0.0452 0.10089,-0.0795 0.14062,-0.13281 2.76578,-3.70533 10.95984,-57.27262 11.73633,-62.84961 0.77648,-5.57701 7.41703,-58.54823 5.42773,-60.41992 -0.0622,-0.0584 -0.14707,-0.0802 -0.25586,-0.0703 z"
           id="path6738"
           inkscape:connector-curvature="0"
           inkscape:export-xdpi="90"
           inkscape:export-ydpi="90" />
        <path
           style="opacity:1;fill:#ffe680;fill-opacity:1;fill-rule:nonzero;stroke:#000000;stroke-width:0.72102469;stroke-miterlimit:4;stroke-dasharray:none;stroke-opacity:1"
           d="M 50.253906 196.90234 C 50.145121 196.89224 50.058294 196.91501 49.996094 196.97461 C 48.006887 198.8834 54.647384 252.90424 55.423828 258.5918 C 56.200282 264.27933 64.394505 318.90872 67.160156 322.6875 C 67.199884 322.74188 67.254081 322.77617 67.300781 322.82227 C 69.516367 332.20176 71.888725 339.87537 73.615234 340.92578 C 79.836203 344.7106 148.26437 343.83884 155.28516 341.73438 C 160.41481 340.19675 199.43217 308.32715 199.63672 303.13867 C 199.70473 301.41399 197.66957 296.72195 194.50586 290.58594 C 183.78059 289.15655 174.71931 287.76877 172.53516 287.51367 C 167.4203 286.91628 124.15465 283.71278 110.82227 279.42773 C 107.83791 271.23366 83.99629 237.29409 81.365234 233.69922 C 78.686019 230.03854 53.626048 197.21491 50.253906 196.90234 z "
           id="path6738-3"
           inkscape:export-xdpi="90"
           inkscape:export-ydpi="90" />
        <path
           style="opacity:1;fill:#ffe680;fill-opacity:1;fill-rule:nonzero;stroke:none;stroke-width:0.50999999;stroke-miterlimit:4;stroke-dasharray:none;stroke-opacity:1"
           d="m 88.627882,342.24193 c -11.690406,-0.70299 -14.121677,-1.22585 -15.502996,-3.33401 -1.074721,-1.64023 -3.52232,-9.35648 -6.701526,-21.1271 -1.629669,-6.03364 -4.865183,-23.9033 -8.115552,-44.82197 -3.98198,-25.62715 -9.036715,-73.76221 -7.864732,-74.89398 0.938362,-0.90617 17.118397,18.32497 29.648496,35.23938 7.7569,10.47106 24.963638,36.40918 27.834748,41.95918 l 2.48548,4.80459 4.70257,1.06958 c 6.84445,1.55673 16.96469,2.99113 33.14511,4.69783 7.85095,0.82811 14.39307,1.62427 14.53803,1.76924 0.14496,0.14496 -0.57889,2.79328 -1.60858,5.88515 -3.31132,9.94298 -4.67703,18.79438 -5.17531,33.54206 -0.37695,11.15682 -0.66089,13.79167 -1.52179,14.12203 -3.73016,1.43139 -47.99415,2.1626 -65.863948,1.08802 z"
           id="path6795"
           inkscape:connector-curvature="0"
           inkscape:export-xdpi="90"
           inkscape:export-ydpi="90" />
        <path
           style="opacity:1;fill:url(#linearGradient6831);fill-opacity:1;fill-rule:nonzero;stroke:none;stroke-width:0.71399999;stroke-miterlimit:4;stroke-dasharray:none;stroke-opacity:1"
           d="m 88.270739,342.24001 c -11.379314,-0.72328 -13.781277,-1.24948 -15.135067,-3.31563 -2.43,-3.70865 -7.153938,-21.30712 -10.229392,-38.10839 -6.203733,-33.89114 -14.352417,-100.92274 -12.487915,-102.72641 0.915925,-0.88604 15.036591,15.73438 28.804678,33.90392 6.516266,8.59942 25.838737,37.72635 28.704777,43.26993 l 2.48398,4.80459 4.64376,1.04416 c 7.47724,1.68125 19.3209,3.26201 43.75089,5.83935 2.25893,0.23832 4.10715,0.66687 4.10715,0.95234 0,0.28548 -0.80188,2.87665 -1.78194,5.75816 -3.17781,9.34315 -4.70351,19.32135 -5.15685,33.72619 -0.34986,11.11676 -0.60528,13.42888 -1.52235,13.7808 -3.7866,1.45306 -48.72869,2.18033 -66.181721,1.07099 z"
           id="path6823"
           inkscape:connector-curvature="0"
           inkscape:export-xdpi="90"
           inkscape:export-ydpi="90" />
        <path
           style="opacity:1;fill:url(#linearGradient6841);fill-opacity:1;fill-rule:nonzero;stroke:none;stroke-width:0.71399999;stroke-miterlimit:4;stroke-dasharray:none;stroke-opacity:1"
           d="m 381.78786,336.0871 c -3.77139,-0.30357 -6.93691,-0.97446 -8.2457,-1.74757 l -2.1243,-1.25486 -0.85495,-10.46864 c -0.96605,-11.82895 -3.09268,-21.09331 -7.30528,-31.8245 -1.54189,-3.92781 -2.73319,-7.20452 -2.64734,-7.28157 0.0858,-0.077 8.67395,-0.99629 19.08467,-2.04275 16.59428,-1.66801 38.42316,-4.77386 39.87989,-5.67417 0.27628,-0.17075 2.67826,-3.95373 5.33775,-8.40663 5.4363,-9.10225 17.67126,-26.9485 26.68071,-38.91721 7.1183,-9.45638 23.39817,-29.00277 26.68236,-32.0361 l 2.32006,-2.14286 -0.48946,8.55932 c -1.48488,25.96613 -11.17148,93.5276 -15.67055,109.29782 -0.56038,1.96429 -1.85884,6.51147 -2.88546,10.10484 -2.21231,7.74352 -3.56907,11.14985 -4.87167,12.2309 -1.88272,1.56253 -16.13332,2.30543 -42.23789,2.20191 -14.5923,-0.0579 -29.28608,-0.32694 -32.65284,-0.59793 z"
           id="path6833"
           inkscape:connector-curvature="0"
           inkscape:export-xdpi="90"
           inkscape:export-ydpi="90" />
        <path
           style="opacity:1;fill:url(#linearGradient6853);fill-opacity:1;fill-rule:nonzero;stroke:none;stroke-width:0.71399999;stroke-miterlimit:4;stroke-dasharray:none;stroke-opacity:1"
           d="m 114.91377,342.431 c 4.1233,-0.28707 4.10163,-0.23307 2.08041,-5.18644 -0.40077,-0.98214 -0.8058,-2.14836 -0.90009,-2.5916 -0.41787,-1.96454 -2.5935,-9.06451 -3.31759,-10.82667 -0.43818,-1.06638 -0.87082,-2.2603 -0.96141,-2.65316 -0.61463,-2.66549 -1.98425,-7.26123 -2.63412,-8.83882 -0.42493,-1.0315 -0.84974,-2.23811 -0.94402,-2.68135 -0.32281,-1.5176 -2.52037,-8.88642 -3.12227,-10.46953 -0.33075,-0.86995 -0.68106,-1.90315 -0.77847,-2.29601 -0.56151,-2.26469 -2.37287,-8.00514 -3.02427,-9.58435 -0.41839,-1.01432 -0.83785,-2.20687 -0.93213,-2.65011 -0.654332,-3.07615 -2.728564,-9.34894 -3.335475,-10.08697 -0.403827,-0.49107 -0.494802,-0.89286 -0.202167,-0.89286 0.292635,0 0.13192,-0.48214 -0.357143,-1.07143 -0.489064,-0.58928 -0.70646,-1.07142 -0.483104,-1.07142 0.427918,0 -1.253441,-6.0909 -2.547119,-9.22721 -0.418393,-1.01432 -0.837855,-2.20687 -0.932136,-2.65011 -0.654331,-3.07615 -2.728563,-9.34894 -3.335474,-10.08697 -0.403827,-0.49107 -0.494802,-0.89286 -0.202167,-0.89286 0.292635,0 0.15567,-0.45352 -0.304367,-1.00784 -0.469025,-0.56514 -0.552763,-1.18315 -0.190639,-1.40695 0.722079,-0.44627 14.928031,20.72458 19.114671,28.48622 1.48336,2.75 2.76746,5.09885 2.85357,5.21966 0.73454,1.03058 24.11678,4.50412 44.22965,6.57052 4.31516,0.44333 7.96441,0.92474 8.10946,1.06978 0.14504,0.14505 -0.57875,2.79343 -1.60844,5.8853 -3.31132,9.94298 -4.67703,18.79439 -5.17531,33.54206 -0.38875,11.50592 -0.64369,13.78507 -1.58222,14.14522 -1.67327,0.6421 -25.68943,1.75723 -35.08923,1.62929 -4.51786,-0.0615 -6.51064,-0.23041 -4.4284,-0.37539 z"
           id="path6845"
           inkscape:connector-curvature="0"
           inkscape:export-xdpi="90"
           inkscape:export-ydpi="90" />
        <path
           id="path6855"
           style="opacity:1;fill:url(#linearGradient6863);fill-opacity:1;fill-rule:nonzero;stroke:none;stroke-width:0.71399999;stroke-miterlimit:4;stroke-dasharray:none;stroke-opacity:1"
           d="m 480.32379,194.47421 -1.97461,1.78516 c -2.89928,2.62079 -19.39696,22.4719 -26.32813,31.67969 -9.00945,11.96871 -21.24338,29.81376 -26.67968,38.91601 -2.65949,4.4529 -5.06161,8.23746 -5.33789,8.40821 -1.45673,0.90031 -23.28658,4.00582 -39.88086,5.67383 -10.41072,1.04646 -18.99819,1.96596 -19.08399,2.04296 -0.0858,0.0771 1.1046,3.35344 2.64649,7.28125 4.2126,10.73119 6.34059,19.99527 7.30664,31.82422 l 0.85351,10.46875 2.125,1.25391 c 1.30879,0.77311 4.47471,1.44448 8.2461,1.74805 6.57273,0.52904 63.62215,0.71554 60.9414,0.19921 -1.9151,-0.36887 -1.95491,-0.91556 -0.45312,-5.97265 0.63367,-2.1338 1.15065,-3.94936 1.15039,-4.03516 -2.7e-4,-0.0858 0.77784,-2.81873 1.72851,-6.07226 0.95068,-3.25352 1.87042,-6.55804 2.04493,-7.34375 0.17451,-0.78571 1.2961,-4.80469 2.49218,-8.92969 1.19607,-4.125 2.34533,-8.30301 2.55274,-9.28516 0.20741,-0.98214 1.05991,-4.03515 1.89453,-6.78515 0.83462,-2.75 1.63272,-5.64265 1.77344,-6.42774 0.14073,-0.7851 0.87799,-3.51807 1.63867,-6.07226 0.76067,-2.55419 1.42963,-4.87405 1.48633,-5.15625 0.0567,-0.28218 0.88136,-3.17422 1.83203,-6.42774 0.95068,-3.25353 1.87333,-6.55999 2.05078,-7.3457 0.17745,-0.78572 0.97738,-3.67774 1.7793,-6.42774 0.80191,-2.75 1.60396,-5.64202 1.78125,-6.42773 0.1773,-0.78572 1.30196,-4.80469 2.49804,-8.92969 1.19608,-4.125 2.34337,-8.30301 2.55078,-9.28515 0.2074,-0.98214 1.05991,-4.03516 1.89454,-6.78516 0.83462,-2.75 1.63271,-5.64263 1.77343,-6.42773 0.14073,-0.78509 0.94539,-3.67907 1.78711,-6.42969 0.84172,-2.75062 1.6003,-5.322 1.6875,-5.71485 0.0872,-0.39286 0.39876,-1.67885 0.69141,-2.85742 l 0.53125,-2.14258 z"
           inkscape:connector-curvature="0"
           inkscape:export-xdpi="90"
           inkscape:export-ydpi="90" />
        <path
           style="opacity:0.97000002;fill:#ff6600;fill-opacity:1;fill-rule:nonzero;stroke:none;stroke-width:0.71399999;stroke-miterlimit:4;stroke-dasharray:none;stroke-opacity:1"
           id="path6311"
           sodipodi:type="arc"
           sodipodi:cx="271.47852"
           sodipodi:cy="389.70215"
           sodipodi:rx="113.89469"
           sodipodi:ry="162.63457"
           sodipodi:start="0"
           sodipodi:end="6.2787311"
           sodipodi:open="true"
           d="M 385.37321,389.70215 A 113.89469,162.63457 0 0 1 271.60534,552.33661 113.89469,162.63457 0 0 1 157.58411,390.06435 113.89469,162.63457 0 0 1 271.09803,227.06849 113.89469,162.63457 0 0 1 385.37208,388.97774"
           clip-path="url(#clipPath6327)"
           inkscape:export-xdpi="90"
           inkscape:export-ydpi="90" />
        <path
           style="opacity:0.97000002;fill:#ff6600;fill-opacity:1;fill-rule:nonzero;stroke:none;stroke-width:0.71399999;stroke-miterlimit:4;stroke-dasharray:none;stroke-opacity:1"
           id="path6313"
           sodipodi:type="arc"
           sodipodi:cx="261.88205"
           sodipodi:cy="466.97879"
           sodipodi:rx="4.2931485"
           sodipodi:ry="13.131983"
           sodipodi:start="0"
           sodipodi:end="0.010397729"
           sodipodi:open="true"
           d="m 266.1752,466.97879 a 4.2931485,13.131983 0 0 1 -2.3e-4,0.13654"
           inkscape:export-xdpi="90"
           inkscape:export-ydpi="90" />
        <path
           style="opacity:0.97000002;fill:#aa4400;fill-opacity:1;fill-rule:nonzero;stroke:#000000;stroke-width:0.71399999;stroke-miterlimit:4;stroke-dasharray:none;stroke-opacity:1"
           d="m 257.59156,550.85142 c -14.54508,-2.5628 -29.43848,-9.60894 -42.36589,-20.04352 -5.73825,-4.63172 -15.88578,-15.32335 -20.98845,-22.11383 -17.50103,-23.28985 -29.38802,-53.39324 -34.00463,-86.11551 -1.79299,-12.70865 -2.22018,-19.07052 -2.20446,-32.82996 0.0161,-14.13091 0.4814,-21.90241 1.94275,-32.45115 l 0.89212,-6.43972 110.5093,0 110.50929,0 0.25829,1.13642 c 0.61944,2.72547 1.28444,8.37533 2.06584,17.5514 1.02991,12.0945 0.77691,35.36877 -0.49964,45.96194 -5.23082,43.40703 -21.19254,80.32992 -45.69352,105.699 -15.59863,16.1513 -33.88237,26.42153 -52.79276,29.65442 -7.85754,1.34332 -19.97408,1.33915 -27.62824,-0.009 l 0,0 z"
           id="path6331"
           inkscape:connector-curvature="0"
           inkscape:export-xdpi="90"
           inkscape:export-ydpi="90" />
        <path
           style="opacity:0.97000002;fill:#aa4400;fill-opacity:1;fill-rule:nonzero;stroke:#000000;stroke-width:0.36062446;stroke-miterlimit:4;stroke-dasharray:none;stroke-opacity:1"
           d="m 263.20791,551.05422 c -14.79438,-1.40121 -30.98128,-8.12718 -44.9435,-18.67489 -5.36799,-4.05524 -16.82716,-15.49008 -21.70595,-21.6599 -16.48592,-20.84838 -28.95641,-49.72908 -34.35111,-79.55457 -2.47538,-13.68551 -3.11633,-20.54582 -3.39758,-36.36549 -0.2828,-15.9068 0.16643,-25.82587 1.68699,-37.24938 l 0.82356,-6.18718 110.00368,0 c 104.32502,0 110.01774,0.0456 110.27585,0.88388 0.6941,2.2542 1.89462,14.56355 2.4203,24.81606 1.52502,29.74325 -2.17747,57.62794 -11.14035,83.90161 -11.36411,33.31262 -30.62827,60.08427 -54.61857,75.9041 -9.6881,6.38858 -21.95623,11.455 -32.07235,13.24505 -4.46211,0.78957 -18.50668,1.36448 -22.98097,0.94071 z"
           id="path6333"
           inkscape:connector-curvature="0"
           inkscape:export-xdpi="90"
           inkscape:export-ydpi="90" />
        <path
           style="opacity:0.97000002;fill:#aa4400;fill-opacity:1;fill-rule:nonzero;stroke:#000000;stroke-width:0.71399999;stroke-miterlimit:4;stroke-dasharray:none;stroke-opacity:1"
           id="path6335"
           sodipodi:type="arc"
           sodipodi:cx="271.47852"
           sodipodi:cy="481.3735"
           sodipodi:rx="42.678944"
           sodipodi:ry="21.970818"
           sodipodi:start="0"
           sodipodi:end="6.2787347"
           sodipodi:open="true"
           d="m 314.15746,481.3735 a 42.678944,21.970818 0 0 1 -42.63146,21.97081 42.678944,21.970818 0 0 1 -42.72632,-21.92191 42.678944,21.970818 0 0 1 42.53638,-22.01959 42.678944,21.970818 0 0 1 42.82098,21.87291"
           inkscape:export-xdpi="90"
           inkscape:export-ydpi="90" />
        <path
           style="opacity:0.97000002;fill:#aa4400;fill-opacity:1;fill-rule:nonzero;stroke:#000000;stroke-width:0.71399999;stroke-miterlimit:4;stroke-dasharray:none;stroke-opacity:1"
           id="path6339"
           sodipodi:type="arc"
           sodipodi:cx="259.35666"
           sodipodi:cy="485.91919"
           sodipodi:rx="3.2829957"
           sodipodi:ry="4.2931485"
           sodipodi:start="0"
           sodipodi:end="6.2787347"
           sodipodi:open="true"
           d="m 262.63965,485.91919 a 3.2829957,4.2931485 0 0 1 -3.27934,4.29315 3.2829957,4.2931485 0 0 1 -3.28664,-4.2836 3.2829957,4.2931485 0 0 1 3.27203,-4.30268 3.2829957,4.2931485 0 0 1 3.29392,4.27402"
           inkscape:export-xdpi="90"
           inkscape:export-ydpi="90" />
        <path
           style="opacity:0.97000002;fill:#aa4400;fill-opacity:1;fill-rule:nonzero;stroke:#000000;stroke-width:0.71399999;stroke-miterlimit:4;stroke-dasharray:none;stroke-opacity:1"
           id="path6341"
           sodipodi:type="arc"
           sodipodi:cx="283.85287"
           sodipodi:cy="485.91916"
           sodipodi:rx="3.5355339"
           sodipodi:ry="4.2931485"
           sodipodi:start="0"
           sodipodi:end="6.2787347"
           sodipodi:open="true"
           d="m 287.38841,485.91916 a 3.5355339,4.2931485 0 0 1 -3.5316,4.29314 3.5355339,4.2931485 0 0 1 -3.53946,-4.28359 3.5355339,4.2931485 0 0 1 3.52372,-4.30268 3.5355339,4.2931485 0 0 1 3.5473,4.27402"
           inkscape:export-xdpi="90"
           inkscape:export-ydpi="90" />
        <path
           style="opacity:0.97000002;fill:url(#linearGradient6371);fill-opacity:1;fill-rule:nonzero;stroke:none;stroke-width:0.36062446;stroke-miterlimit:4;stroke-dasharray:none;stroke-opacity:1"
           d="m 259.92492,550.34606 c -16.40274,-2.57088 -33.5985,-11.01725 -46.9721,-23.0722 -9.72777,-8.7686 -16.73316,-16.90431 -23.60928,-27.41863 -15.07366,-23.04922 -25.17668,-51.9831 -28.92315,-82.83251 -1.01585,-8.36474 -1.60388,-44.37228 -0.67636,-41.41625 14.10409,44.95025 25.19771,70.17574 32.13682,73.07508 1.54649,0.64616 1.9021,0.62354 3.5662,-0.22688 3.02437,-1.54559 6.80767,-7.12532 11.89447,-17.54235 2.57735,-5.27805 5.13379,-10.59224 5.68098,-11.80932 l 0.99489,-2.21286 2.46101,6.00093 c 5.4487,13.28614 9.87341,21.4294 13.62194,25.06993 4.48178,4.35265 7.76101,2.52641 13.95963,-7.77431 2.65845,-4.41774 6.04779,-11.25993 8.65797,-17.47814 0.84626,-2.01604 1.68881,-3.66552 1.87233,-3.66552 0.18352,0 1.31645,2.4433 2.51762,5.42957 7.02022,17.45316 13.45661,27.40039 17.72951,27.40039 3.51444,0 8.84275,-6.95613 14.79827,-19.31917 1.97382,-4.09743 3.71499,-7.44988 3.86928,-7.44988 0.15429,0 1.49531,2.82243 2.98004,6.27207 5.17523,12.02409 11.16355,20.4993 14.48122,20.49509 3.80941,-0.005 8.09307,-5.33874 14.29908,-17.80486 l 3.96162,-7.95776 4.61854,9.31089 c 3.77685,7.61405 5.15029,9.86968 7.53633,12.37717 3.27253,3.43909 4.67519,3.82231 7.55764,2.06483 5.76169,-3.513 15.4285,-23.4264 26.9746,-55.56708 3.03632,-8.45215 6.93132,-20.64665 7.07644,-22.15498 0.2629,-2.7326 0.81457,7.84287 0.86589,16.59914 0.27944,47.6807 -13.69495,91.83281 -39.00571,123.23861 -4.78288,5.93464 -15.22367,16.09296 -20.9059,20.3403 -12.14993,9.08179 -26.32434,15.49785 -38.76601,17.54745 -4.33148,0.71356 -21.66425,1.04385 -25.25381,0.48125 z M 285.56219,502.64 c 18.25083,-3.30111 30.17013,-12.60525 28.98707,-22.62715 -1.88628,-15.97905 -34.75581,-25.83468 -62.45303,-18.72598 -2.63902,0.67732 -7.18173,2.38953 -10.09492,3.8049 -9.37209,4.55344 -14.10617,10.59024 -13.53925,17.26495 0.31291,3.68404 1.65557,6.18581 5.20789,9.70381 5.35505,5.3033 15.3765,9.44798 26.80296,11.08519 6.18146,0.88569 18.80316,0.63128 25.08928,-0.50572 z"
           id="path6363"
           inkscape:connector-curvature="0"
           inkscape:export-xdpi="90"
           inkscape:export-ydpi="90" />
        <path
           style="opacity:0.97000002;fill:url(#linearGradient6381);fill-opacity:1;fill-rule:nonzero;stroke:none;stroke-width:0.71399999;stroke-miterlimit:4;stroke-dasharray:none;stroke-opacity:1"
           d="m 258.70692,550.13766 c -6.34815,-1.21442 -10.77487,-2.41673 -10.20188,-2.77086 0.35881,-0.22176 -2.92448,-10.74879 -9.54772,-30.6123 -5.55203,-16.65088 -10.08549,-30.50373 -10.07437,-30.78413 0.0111,-0.2804 0.38135,0.17204 0.82274,1.00542 4.02131,7.59257 14.76546,13.42338 29.46161,15.98871 5.53107,0.96549 20.31927,0.82166 26.13109,-0.25415 18.62455,-3.44755 30.4409,-12.61656 29.25087,-22.6975 -1.14123,-9.66759 -13.74779,-17.62095 -32.26727,-20.35711 -6.67789,-0.98662 -19.42656,-0.72168 -25.60833,0.53219 -17.05627,3.45958 -28.21982,11.89981 -28.35645,21.43896 -0.0367,2.5635 -0.91191,0.19558 -9.50379,-25.71329 l -9.46334,-28.53681 0.85213,-2.02031 c 0.46868,-1.11117 1.51098,-3.47685 2.31623,-5.25707 l 1.46408,-3.23676 2.71013,6.51976 c 3.34477,8.04649 7.98369,17.5178 10.0247,20.46745 6.16833,8.91444 9.74688,8.42795 16.52219,-2.24616 2.11072,-3.32531 7.47165,-14.00818 9.61067,-19.15141 0.77983,-1.87509 1.56544,-3.40926 1.7458,-3.40926 0.18036,0 1.31071,2.4433 2.51188,5.42957 7.02022,17.45316 13.45661,27.40039 17.72951,27.40039 3.51444,0 8.84275,-6.95613 14.79827,-19.31917 1.97382,-4.09743 3.71499,-7.44988 3.86928,-7.44988 0.15429,0 1.49531,2.82243 2.98004,6.27207 5.17523,12.02409 11.16355,20.4993 14.48122,20.49509 3.80941,-0.005 8.09307,-5.33874 14.29908,-17.80486 l 3.96162,-7.95776 4.61854,9.31089 c 3.77685,7.61405 5.15029,9.86968 7.53633,12.37717 3.27253,3.43909 4.67519,3.82231 7.55764,2.06483 5.76169,-3.513 15.4285,-23.4264 26.9746,-55.56708 3.03632,-8.45215 6.93132,-20.64665 7.07644,-22.15498 0.2629,-2.7326 0.81457,7.84287 0.86589,16.59914 0.27944,47.6807 -13.69495,91.83281 -39.00571,123.23861 -4.78288,5.93464 -15.22367,16.09296 -20.9059,20.3403 -11.82074,8.83573 -25.58312,15.20586 -37.42275,17.3217 -5.95446,1.06411 -23.23935,1.37395 -27.81507,0.4986 z"
           id="path6373"
           inkscape:connector-curvature="0"
           inkscape:export-xdpi="90"
           inkscape:export-ydpi="90" />
        <path
           style="opacity:0.97000002;fill:#d45500;fill-opacity:1;fill-rule:nonzero;stroke:none;stroke-width:0.71399999;stroke-miterlimit:4;stroke-dasharray:none;stroke-opacity:1"
           d="m 264.97568,502.57912 c -16.58189,-1.71917 -29.39297,-7.48124 -33.97936,-15.283 -1.14396,-1.94596 -1.37598,-2.9368 -1.37598,-5.87617 0,-2.94435 0.23142,-3.9292 1.38397,-5.8898 9.33398,-15.87802 47.96774,-20.74832 70.71396,-8.91443 10.40897,5.41533 14.29584,13.28728 10.17772,20.61261 -3.67139,6.53068 -14.18681,12.19122 -26.71947,14.38332 -4.544,0.79479 -16.39291,1.36227 -20.20084,0.96747 z m -3.07536,-13.36924 c 3.61958,-4.30163 -1.11935,-10.71221 -5.02882,-6.80274 -0.85647,0.85648 -1.23973,1.80108 -1.23973,3.05554 0,4.77348 3.59614,6.92318 6.26855,3.7472 z m 24.29163,0.41677 c 0.87317,-0.75107 1.41519,-1.83132 1.59627,-3.18141 0.22965,-1.71216 0.0532,-2.3068 -1.08628,-3.66101 -1.99515,-2.3711 -4.73647,-2.17314 -6.08758,0.43961 -1.18957,2.30037 -0.93532,4.39088 0.73745,6.06364 1.77156,1.77156 3.06917,1.86249 4.84014,0.33917 z"
           id="path6393"
           inkscape:connector-curvature="0"
           inkscape:export-xdpi="90"
           inkscape:export-ydpi="90" />
        <path
           style="opacity:0.97000002;fill:#241c1c;fill-opacity:1;fill-rule:nonzero;stroke:none;stroke-width:0.71399999;stroke-miterlimit:4;stroke-dasharray:none;stroke-opacity:1"
           d="m 257.65207,488.74355 c -2.17594,-2.17594 -0.5691,-7.07186 2.10104,-6.4017 1.27677,0.32045 2.44465,2.15109 2.44465,3.83197 0,1.18677 -1.88152,3.57989 -2.81458,3.57989 -0.39652,0 -1.17552,-0.45457 -1.73111,-1.01016 z"
           id="path6395"
           inkscape:connector-curvature="0"
           inkscape:export-xdpi="90"
           inkscape:export-ydpi="90" />
        <path
           style="opacity:0.97000002;fill:#241c1c;fill-opacity:1;fill-rule:nonzero;stroke:none;stroke-width:0.71399999;stroke-miterlimit:4;stroke-dasharray:none;stroke-opacity:1"
           d="m 281.91541,488.64832 c -2.01949,-2.16767 -0.71344,-6.47076 1.96397,-6.47076 1.2161,0 3.06712,2.28611 3.06712,3.78807 0,1.4913 -1.84772,3.78808 -3.04744,3.78808 -0.5246,0 -1.41725,-0.49743 -1.98365,-1.10539 z"
           id="path6397"
           inkscape:connector-curvature="0"
           inkscape:export-xdpi="90"
           inkscape:export-ydpi="90" />
        <path
           style="opacity:0.97000002;fill:#241c1c;fill-opacity:1;fill-rule:nonzero;stroke:none;stroke-width:0.71399999;stroke-miterlimit:4;stroke-dasharray:none;stroke-opacity:1"
           d="m 282.48716,488.86982 c -1.76645,-1.50749 -1.64042,-4.79735 0.23074,-6.02339 1.30767,-0.85681 1.34866,-0.84568 2.77792,0.75394 1.78455,1.99725 1.80409,2.62537 0.14309,4.59936 -1.51867,1.80482 -1.76158,1.85647 -3.15175,0.67009 z"
           id="path6399"
           inkscape:connector-curvature="0"
           inkscape:export-xdpi="90"
           inkscape:export-ydpi="90" />
        <path
           style="opacity:0.97000002;fill:#241c1c;fill-opacity:1;fill-rule:nonzero;stroke:#000000;stroke-width:0.71399999;stroke-miterlimit:4;stroke-dasharray:none;stroke-opacity:1"
           d="m 258.13237,488.82505 c -1.35349,-1.09598 -1.63543,-3.99295 -0.51947,-5.3376 1.11691,-1.34579 2.94503,-0.99559 3.8403,0.73566 0.92571,1.79012 0.68421,2.91641 -0.95565,4.45698 -1.16343,1.09299 -1.19224,1.09475 -2.36518,0.14496 z"
           id="path6401"
           inkscape:connector-curvature="0"
           inkscape:export-xdpi="90"
           inkscape:export-ydpi="90" />
        <path
           style="opacity:0.97000002;fill:#241c1c;fill-opacity:1;fill-rule:nonzero;stroke:#000000;stroke-width:0.36062446;stroke-miterlimit:4;stroke-dasharray:none;stroke-opacity:1"
           d="m 282.48716,488.86982 c -1.76645,-1.50749 -1.64042,-4.79735 0.23074,-6.02339 1.30767,-0.85681 1.34866,-0.84568 2.77792,0.75394 1.78455,1.99725 1.80409,2.62537 0.14309,4.59936 -1.51867,1.80482 -1.76158,1.85647 -3.15175,0.67009 z"
           id="path6403"
           inkscape:connector-curvature="0"
           inkscape:export-xdpi="90"
           inkscape:export-ydpi="90" />
        <path
           style="opacity:0.97000002;fill:#241c1c;fill-opacity:1;fill-rule:nonzero;stroke:#000000;stroke-width:0.36062446;stroke-miterlimit:4;stroke-dasharray:none;stroke-opacity:1"
           d="m 258.31538,488.13387 c -0.926,-1.19386 -1.14524,-2.41588 -0.66164,-3.68785 0.63039,-1.65806 2.25833,-1.62779 3.36591,0.0626 0.77564,1.18378 0.78815,1.45865 0.12055,2.64807 -0.84836,1.51147 -2.07997,1.93751 -2.82482,0.97719 z"
           id="path6405"
           inkscape:connector-curvature="0"
           inkscape:export-xdpi="90"
           inkscape:export-ydpi="90" />
        <path
           style="opacity:0.97000002;fill:#241c1c;fill-opacity:1;fill-rule:nonzero;stroke:#000000;stroke-width:0.36062446;stroke-miterlimit:4;stroke-dasharray:none;stroke-opacity:1"
           d="m 258.13197,487.18128 c -0.75713,-1.41471 -0.196,-3.48849 0.94394,-3.48849 1.87004,0 2.85857,2.58663 1.50561,3.9396 -0.90354,0.90353 -1.81433,0.7358 -2.44955,-0.45111 z"
           id="path6407"
           inkscape:connector-curvature="0"
           inkscape:export-xdpi="90"
           inkscape:export-ydpi="90" />
        <path
           style="opacity:0.97000002;fill:#d35f5f;fill-opacity:1;fill-rule:nonzero;stroke:#000000;stroke-width:0.36062446;stroke-miterlimit:4;stroke-dasharray:none;stroke-opacity:1"
           d="m 263.20791,502.32677 c -15.31953,-1.73038 -29.00605,-8.3405 -32.46574,-15.67985 -1.08979,-2.31186 -1.1532,-7.86292 -0.11812,-10.34021 1.17155,-2.80392 6.14049,-7.29897 10.64397,-9.62885 20.42263,-10.56567 53.93304,-8.07807 67.49449,5.01036 4.48762,4.3311 5.80324,9.89614 3.47603,14.70352 -1.26769,2.61869 -5.92872,7.16145 -9.25592,9.02106 -7.26473,4.06034 -15.65123,6.26568 -26.49954,6.9684 -8.31373,0.53855 -8.01447,0.53977 -13.27517,-0.0544 z m -1.47638,-13.03929 c 1.67277,-1.67276 1.92701,-3.76327 0.73745,-6.06364 -1.88095,-3.63736 -6.83721,-2.01443 -6.83721,2.23884 0,4.72052 3.19847,6.72609 6.09976,3.8248 z m 24.46042,0.33917 c 0.88984,-0.76541 1.41512,-1.83079 1.60663,-3.25862 0.25223,-1.88053 0.10972,-2.29622 -1.25507,-3.66101 -2.24131,-2.2413 -4.60962,-2.03487 -5.92915,0.51682 -1.18957,2.30037 -0.93532,4.39088 0.73745,6.06364 1.77156,1.77156 3.06917,1.86249 4.84014,0.33917 z"
           id="path6409"
           inkscape:connector-curvature="0"
           inkscape:export-xdpi="90"
           inkscape:export-ydpi="90" />
        <path
           style="display:inline;opacity:1;fill:#aa4400;fill-opacity:1;fill-rule:evenodd;stroke:#000000;stroke-width:0.18031223;stroke-miterlimit:4;stroke-dasharray:none;stroke-opacity:1"
           d="m 163.2802,356.74741 c -7.48239,-1.0549 -16.12742,-3 -19.47333,-4.38143 -4.57518,-1.88894 -5.61657,-3.56989 -4.33451,-6.9965 0.6405,-1.71189 3.34998,-5.79681 5.63834,-8.50058 0.91055,-1.07584 1.65554,-2.05672 1.65554,-2.17973 0,-0.12301 -0.53418,-0.35817 -1.18706,-0.52257 -3.54866,-0.89356 -7.05321,-2.71685 -7.9039,-4.11211 -1.56024,-2.55902 0.76555,-7.0945 7.66845,-14.95403 l 1.98676,-2.2621 -0.61931,-0.51748 c -0.34063,-0.28462 -1.53364,-1.23071 -2.65115,-2.10242 -3.20515,-2.50019 -5.77634,-5.21343 -6.68004,-7.04911 -0.71789,-1.45823 -0.76478,-1.69535 -0.50606,-2.55889 0.58474,-1.95168 3.17509,-4.14349 7.951,-6.72767 1.6352,-0.88479 2.18651,-1.30599 2.07833,-1.58788 -0.52451,-1.36685 -2.23866,-7.42593 -2.69706,-9.53341 -0.75465,-3.46948 -0.79233,-7.23846 -0.0846,-8.46003 0.91901,-1.58618 1.96515,-1.897 6.30643,-1.8737 4.14432,0.0223 7.24218,0.54737 15.548,2.63557 11.06847,2.78277 15.63634,5.23126 15.63951,8.38317 0.002,2.15412 -2.16114,5.99129 -5.87026,10.41239 l -1.89484,2.25856 -0.17587,2.91847 c -0.24991,4.14714 -1.05383,11.02124 -1.67468,14.31979 l -0.52984,2.81501 1.15925,3.54702 c 1.76546,5.40191 2.43966,8.39728 2.59879,11.54609 0.12465,2.46656 0.0799,2.93137 -0.38284,3.97748 -0.28818,0.65149 -0.64401,1.18454 -0.79071,1.18454 -0.44613,0 -0.3126,0.67602 0.84148,4.26044 1.47693,4.58715 2.17607,8.07249 2.16923,10.81414 -0.007,2.9843 -0.49164,4.07483 -2.17552,4.89975 -1.11426,0.54587 -1.59132,0.60658 -5.14254,0.6544 -2.32638,0.0313 -4.9499,-0.0933 -6.46701,-0.30718 z"
           id="path6700"
           inkscape:connector-curvature="0"
           inkscape:export-xdpi="90"
           inkscape:export-ydpi="90" />
        <g
           id="g6543"
           style="fill-rule:evenodd"
           transform="translate(-38.385797,13.763328)"
           inkscape:export-xdpi="90"
           inkscape:export-ydpi="90">
          <path
             transform="matrix(0.97966669,-0.34658248,0.26427664,0.74701708,-30.954628,185.38049)"
             inkscape:transform-center-y="3.3970802"
             inkscape:transform-center-x="0.021771979"
             d="m 347.49247,270.50413 c 4.20792,-4.20791 21.2168,0.59738 26.96492,2.13759 5.74812,1.5402 22.88088,5.88313 24.42109,11.63125 1.5402,5.74812 -11.12575,18.07559 -15.33366,22.28351 -4.20792,4.20791 -16.53539,16.87386 -22.28351,15.33366 -5.74812,-1.54021 -10.09105,-18.67298 -11.63125,-24.4211 -1.54021,-5.74812 -6.3455,-22.75699 -2.13759,-26.96491 z"
             inkscape:randomized="0"
             inkscape:rounded="0.22"
             inkscape:flatsided="false"
             sodipodi:arg2="-1.3089969"
             sodipodi:arg1="-2.3561945"
             sodipodi:r2="20.271429"
             sodipodi:r1="30.714287"
             sodipodi:cy="292.22241"
             sodipodi:cx="369.21075"
             sodipodi:sides="3"
             id="path6412"
             style="opacity:0.97000002;fill:#aa4400;fill-opacity:1;fill-rule:evenodd;stroke:none;stroke-width:0.71399999;stroke-miterlimit:4;stroke-dasharray:none;stroke-opacity:1"
             sodipodi:type="star" />
          <path
             transform="matrix(1.0372616,0.06288504,-0.04795122,0.79093447,40.177836,33.468566)"
             inkscape:transform-center-y="1.8053314"
             inkscape:transform-center-x="-3.8368324"
             d="m 347.49247,270.50413 c 4.20792,-4.20791 21.2168,0.59738 26.96492,2.13759 5.74812,1.5402 22.88088,5.88313 24.42109,11.63125 1.5402,5.74812 -11.12575,18.07559 -15.33366,22.28351 -4.20792,4.20791 -16.53539,16.87386 -22.28351,15.33366 -5.74812,-1.54021 -10.09105,-18.67298 -11.63125,-24.4211 -1.54021,-5.74812 -6.3455,-22.75699 -2.13759,-26.96491 z"
             inkscape:randomized="0"
             inkscape:rounded="0.22"
             inkscape:flatsided="false"
             sodipodi:arg2="-1.3089969"
             sodipodi:arg1="-2.3561945"
             sodipodi:r2="20.271429"
             sodipodi:r1="30.714287"
             sodipodi:cy="292.22241"
             sodipodi:cx="369.21075"
             sodipodi:sides="3"
             id="path6412-0"
             style="opacity:0.97000002;fill:#aa4400;fill-opacity:1;fill-rule:evenodd;stroke:none;stroke-width:0.71399999;stroke-miterlimit:4;stroke-dasharray:none;stroke-opacity:1"
             sodipodi:type="star" />
          <path
             transform="matrix(0.96284896,0.3908811,-0.29805533,0.73419321,142.43505,-57.336465)"
             inkscape:transform-center-y="-2.3335653"
             inkscape:transform-center-x="-5.1526662"
             d="m 347.49247,270.50413 c 4.20792,-4.20791 21.2168,0.59738 26.96492,2.13759 5.74812,1.5402 22.88088,5.88313 24.42109,11.63125 1.5402,5.74812 -11.12575,18.07559 -15.33366,22.28351 -4.20792,4.20791 -16.53539,16.87386 -22.28351,15.33366 -5.74812,-1.54021 -10.09105,-18.67298 -11.63125,-24.4211 -1.54021,-5.74812 -6.3455,-22.75699 -2.13759,-26.96491 z"
             inkscape:randomized="0"
             inkscape:rounded="0.22"
             inkscape:flatsided="false"
             sodipodi:arg2="-1.3089969"
             sodipodi:arg1="-2.3561945"
             sodipodi:r2="20.271429"
             sodipodi:r1="30.714287"
             sodipodi:cy="292.22241"
             sodipodi:cx="369.21075"
             sodipodi:sides="3"
             id="path6412-0-7"
             style="opacity:0.97000002;fill:#aa4400;fill-opacity:1;fill-rule:evenodd;stroke:none;stroke-width:0.71399999;stroke-miterlimit:4;stroke-dasharray:none;stroke-opacity:1"
             sodipodi:type="star" />
          <path
             transform="matrix(0.96284896,0.3908811,-0.29805533,0.73419321,141.62429,-40.570662)"
             inkscape:transform-center-y="-2.3335653"
             inkscape:transform-center-x="-5.1526662"
             d="m 347.49247,270.50413 c 4.20792,-4.20791 21.2168,0.59738 26.96492,2.13759 5.74812,1.5402 22.88088,5.88313 24.42109,11.63125 1.5402,5.74812 -11.12575,18.07559 -15.33366,22.28351 -4.20792,4.20791 -16.53539,16.87386 -22.28351,15.33366 -5.74812,-1.54021 -10.09105,-18.67298 -11.63125,-24.4211 -1.54021,-5.74812 -6.3455,-22.75699 -2.13759,-26.96491 z"
             inkscape:randomized="0"
             inkscape:rounded="0.22"
             inkscape:flatsided="false"
             sodipodi:arg2="-1.3089969"
             sodipodi:arg1="-2.3561945"
             sodipodi:r2="20.271429"
             sodipodi:r1="30.714287"
             sodipodi:cy="292.22241"
             sodipodi:cx="369.21075"
             sodipodi:sides="3"
             id="path6412-0-7-3"
             style="opacity:0.97000002;fill:#aa4400;fill-opacity:1;fill-rule:evenodd;stroke:none;stroke-width:0.71399999;stroke-miterlimit:4;stroke-dasharray:none;stroke-opacity:1"
             sodipodi:type="star" />
        </g>
        <path
           style="opacity:1;fill:#aa4400;fill-opacity:1;fill-rule:evenodd;stroke:#000000;stroke-width:0.36062446;stroke-miterlimit:4;stroke-dasharray:none;stroke-opacity:1"
           d="m 356.96932,350.90417 c -1.64542,-0.72093 -3.15939,-2.95642 -4.10457,-6.06067 -0.72287,-2.37416 -0.82674,-4.43552 -0.65133,-12.92613 0.46717,-22.61317 0.47499,-22.47366 -1.68521,-30.05204 -1.36546,-4.7903 -2.57954,-7.8702 -4.08152,-10.35406 -2.67015,-4.41572 -3.41147,-6.27885 -3.41147,-8.57396 0,-2.27482 0.57918,-2.96316 3.81503,-4.53411 5.66736,-2.7514 25.2588,-6.17695 38.20731,-6.68052 11.98436,-0.46607 13.73639,0.5516 11.71804,6.80646 -0.60088,1.86213 -2.11955,5.18593 -3.37481,7.38623 -1.25527,2.20031 -2.27951,4.13222 -2.27609,4.29315 0.003,0.16093 1.57274,0.92663 3.48737,1.70156 5.0054,2.0259 7.61809,4.03673 7.61809,5.86319 0,1.76633 -2.01795,4.31589 -6.41028,8.09899 -1.7524,1.50933 -3.18436,2.87304 -3.18216,3.03046 0.002,0.15742 1.62312,1.53628 3.60201,3.06414 4.03085,3.11213 7.50566,7.13907 7.50566,8.69828 0,1.48625 -3.03284,4.12876 -6.28627,5.47724 -1.54281,0.63946 -2.80511,1.30775 -2.80511,1.48509 0,0.17735 1.42416,1.58056 3.16479,3.11825 3.67714,3.24841 5.21484,5.7223 4.73793,7.62248 -0.74176,2.95541 -8.68472,6.31 -24.82277,10.48353 -6.53865,1.69099 -9.18995,2.13095 -13.8896,2.30486 -3.19461,0.11821 -6.28837,0.005 -6.87504,-0.25242 z"
           id="path6549"
           inkscape:connector-curvature="0"
           inkscape:export-xdpi="90"
           inkscape:export-ydpi="90" />
        <path
           style="opacity:1;fill:url(#linearGradient6559);fill-opacity:1;fill-rule:evenodd;stroke:#000000;stroke-width:0.36062446;stroke-miterlimit:4;stroke-dasharray:none;stroke-opacity:1"
           d="m 356.75265,350.06674 c -0.62112,-0.43505 -1.63765,-1.74193 -2.25896,-2.90419 -1.09659,-2.05133 -1.13782,-2.67511 -1.40836,-21.30609 -0.27603,-19.00889 -0.29179,-19.23648 -1.64325,-23.73859 -0.7505,-2.50013 -2.74099,-7.30342 -4.42333,-10.67399 -2.67744,-5.36428 -3.0393,-6.43312 -2.90244,-8.57325 0.14479,-2.26418 0.30521,-2.52823 2.16969,-3.57128 7.55123,-4.22439 42.57533,-8.98022 49.17957,-6.67797 3.03704,1.05872 2.51898,4.48286 -1.95242,12.90471 -1.34951,2.54178 -2.30443,4.77064 -2.12206,4.95301 0.18237,0.18237 2.18505,1.20015 4.45039,2.26172 7.92516,3.71386 8.11724,4.96987 1.71672,11.2258 -2.50012,2.44365 -4.54568,4.64741 -4.54568,4.89725 0,0.24983 1.52361,1.78889 3.3858,3.42012 4.58143,4.0132 6.65393,6.27425 7.03104,7.67069 0.42465,1.57248 -1.69878,3.77782 -5.49235,5.70424 -1.5973,0.81112 -2.90419,1.79721 -2.90419,2.1913 0,0.39409 1.06107,1.58406 2.35794,2.64438 2.90473,2.37492 5.21821,5.48616 5.21821,7.01762 0,2.76433 -6.06425,5.74371 -19.42578,9.54394 -12.8844,3.66452 -23.73273,4.9002 -26.43054,3.01058 z"
           id="path6551"
           inkscape:connector-curvature="0"
           inkscape:export-xdpi="90"
           inkscape:export-ydpi="90" />
        <path
           style="display:inline;opacity:1;fill:#aa4400;fill-opacity:1;fill-rule:evenodd;stroke:#000000;stroke-width:0.18031223;stroke-miterlimit:4;stroke-dasharray:none;stroke-opacity:1"
           d="m 163.30102,356.83763 c -5.10932,-0.62763 -14.4654,-2.61688 -18.2229,-3.87447 -4.36482,-1.46087 -6.28004,-3.02016 -6.2673,-5.10259 0.0125,-2.0368 2.12653,-5.77682 5.95161,-10.52903 1.98429,-2.46523 2.03633,-2.76993 0.5278,-3.08985 -3.06454,-0.64992 -7.44441,-3.06495 -8.00262,-4.41258 -1.01169,-2.44243 1.26298,-6.7648 7.13514,-13.55837 1.29574,-1.49905 2.43712,-2.85714 2.53639,-3.01797 0.11278,-0.1827 -0.90401,-1.15822 -2.70998,-2.59998 -3.52843,-2.81686 -6.20187,-5.63229 -7.10916,-7.48673 -0.61564,-1.25833 -0.65196,-1.48409 -0.3831,-2.38148 0.5238,-1.74826 2.85378,-3.7022 7.80889,-6.54859 1.01564,-0.58342 1.90211,-1.20535 1.96992,-1.38206 0.0678,-0.17671 -0.27634,-1.67332 -0.76478,-3.32581 -1.74469,-5.90269 -2.2365,-8.36317 -2.26631,-11.33827 -0.048,-4.79198 0.58639,-5.303 6.53815,-5.26651 4.39158,0.0269 6.42326,0.34286 13.75555,2.13898 12.61525,3.09024 17.19455,5.41349 17.17438,8.71317 -0.0125,2.04884 -1.80014,5.23835 -5.59409,9.98114 l -2.14972,2.68735 -0.17037,3.01475 c -0.20811,3.6823 -0.98613,10.33877 -1.64646,14.08646 l -0.48946,2.77792 1.2608,4.04061 c 1.68148,5.38882 2.20904,7.81096 2.39609,11.00087 0.16594,2.82995 -0.0513,4.02862 -0.9095,5.01812 -0.5368,0.61893 -0.55547,0.5006 0.77095,4.88827 1.50838,4.98962 2.04546,7.97497 1.94864,10.83163 -0.0925,2.72849 -0.42005,3.44406 -2.00024,4.36927 -0.74704,0.4374 -1.37863,0.50646 -5.02437,0.54935 -2.29345,0.027 -5.02223,-0.0556 -6.06395,-0.1836 z"
           id="path6702"
           inkscape:connector-curvature="0"
           inkscape:export-xdpi="90"
           inkscape:export-ydpi="90" />
        <path
           style="display:inline;opacity:1;fill:url(#linearGradient6712);fill-opacity:1;fill-rule:evenodd;stroke:#000000;stroke-width:0.18031223;stroke-miterlimit:4;stroke-dasharray:none;stroke-opacity:1"
           d="m 162.71451,356.82667 c -6.32615,-0.86685 -16.37701,-3.19598 -19.58906,-4.53945 -1.24584,-0.52108 -2.40544,-1.22887 -3.09359,-1.88824 -0.97776,-0.93685 -1.10011,-1.17951 -1.09478,-2.1713 0.0113,-2.10185 1.36559,-4.63164 5.20624,-9.72501 1.16125,-1.54002 2.11137,-3.04097 2.11137,-3.33543 0,-0.44345 -0.29823,-0.62421 -1.73675,-1.05262 -2.38569,-0.71049 -5.16932,-2.14535 -6.36078,-3.27875 -0.84277,-0.80171 -0.99384,-1.10349 -0.99384,-1.98521 0,-2.67785 2.16338,-6.21636 8.0505,-13.1677 0.99388,-1.17355 1.7677,-2.25315 1.71961,-2.39911 -0.0481,-0.14597 -1.60481,-1.58082 -3.45938,-3.18857 -3.58217,-3.10543 -5.70959,-5.43897 -6.44468,-7.06911 -0.38099,-0.84489 -0.40442,-1.14885 -0.15319,-1.9874 0.4177,-1.39416 2.82988,-3.51574 6.57289,-5.78105 2.41316,-1.46047 3.05816,-1.96735 3.05816,-2.40328 0,-0.30384 -0.56023,-2.6216 -1.24496,-5.15057 -1.3708,-5.06291 -1.92545,-8.73807 -1.66593,-11.03854 0.34016,-3.01536 0.86093,-3.28364 6.32015,-3.25586 4.73215,0.0241 6.55175,0.31064 14.29397,2.25103 12.04954,3.01989 16.40111,5.22098 16.38342,8.28699 -0.0121,2.10016 -1.76517,5.23688 -5.65883,10.12526 l -2.00725,2.52004 -0.1999,3.0358 c -0.27429,4.16549 -0.91329,9.71537 -1.57075,13.6424 l -0.54964,3.283 0.83973,2.65165 c 1.78782,5.64541 2.60882,9.33362 2.76525,12.42232 0.14568,2.87653 0.13133,2.98808 -0.56044,4.35534 l -0.70995,1.40319 1.3017,4.60977 c 1.54133,5.45836 1.90298,7.62715 1.76234,10.56876 -0.19045,3.98337 -0.80651,4.36532 -7.14929,4.43238 -2.50013,0.0264 -5.26418,-0.0504 -6.14234,-0.17073 z"
           id="path6704"
           inkscape:connector-curvature="0"
           inkscape:export-xdpi="90"
           inkscape:export-ydpi="90" />
        <path
           style="opacity:0;fill:#a05a2c;stroke:url(#linearGradient5588)"
           d="m 208.14062,225.15234 c -0.0379,2.52125 -0.0114,2.39507 0.3418,7.63672 0.27508,4.08283 0.27487,6.13879 1.30664,10.04688 1.04085,3.94243 2.11902,6.00665 3.7461,9.16797 0.63472,-3.12995 1.4346,-5.9488 2.43945,-8.64844 -0.56451,-0.8465 -1.04789,-1.7513 -1.46289,-2.67774 -1.46136,-3.26227 -2.45463,-6.475 -1.73633,-10.03125 -0.19792,-0.0745 -0.39484,-0.15518 -0.59375,-0.2246 -1.93582,-0.6757 -0.0166,0.15803 -1.87695,-0.70313 -0.7457,-0.34391 2.94025,1.36707 1.51172,0.16406 -0.83412,-0.70243 -2.84068,-0.28104 -2.97461,-1.36328 -0.21144,-1.70843 0.1882,-2.67795 0.875,-3.24023 -0.52536,-0.0428 -1.05088,-0.0835 -1.57618,-0.12696 z m -3.58007,1.78516 c -5.6714,18.60829 -4.55332,37.76511 3.33398,55.16016 2.27537,5.01821 5.07758,9.73377 8.33008,14.10156 0.3268,-0.26234 0.69266,-0.56431 0.9375,-0.7461 1.02237,-0.75891 2.06412,-1.49361 3.10937,-2.2207 -0.96006,-1.95854 -3.35104,-6.77249 -3.99414,-8.74414 -1.18187,-3.62344 -1.3504,-6.32793 -1.44336,-10.13672 -0.0155,-0.031 -0.04,-0.0608 -0.0547,-0.0918 -1.01907,-2.14603 -1.29546,-4.57178 -1.94336,-6.85743 -0.0295,-3.22258 -0.48086,-6.4728 -0.20899,-9.67578 -0.15752,-0.24446 -0.31721,-0.49504 -0.47461,-0.73828 -2.30726,1.15445 -4.67544,2.19906 -6.93945,3.42383 -3.10966,1.68225 -4.59851,-1.54662 -1.49609,-3.24219 2.19923,-1.20195 4.51106,-2.21096 6.75976,-3.33203 -1.87307,-3.68528 -3.03173,-5.82747 -4.19726,-10.33398 -1.05473,-4.07814 -1.08251,-6.29519 -1.36133,-10.5 -0.24668,-3.72011 -0.34214,-4.88487 -0.35742,-6.06641 z m 143.9375,0.67578 c 0.0507,0.14697 0.0906,0.30089 0.14843,0.44336 -0.31118,3e-5 -0.6224,0.006 -0.93359,0.006 -0.0397,0.0722 -0.0704,0.1486 -0.11523,0.21875 -0.45192,0.70773 -1.66606,0.20521 -2.50196,0.28516 -0.3034,0.029 -0.60323,0.0391 -0.90429,0.0566 -0.11482,0.0657 -0.20876,0.11737 -0.34961,0.19922 -1.56752,0.45249 -3.10728,1.09586 -4.69727,1.51171 0.70483,0.0947 1.41105,0.17981 2.11524,0.2793 6.04746,0.85441 1.2135,0.56941 6.47461,0.89453 0.64224,0.0397 1.58138,-0.46875 1.92968,0.0723 0.0397,0.0617 0.0689,0.12829 0.10547,0.1914 0.36791,-0.0135 0.73633,-0.0156 1.10352,-0.0351 -0.18981,0.53293 -0.33814,1.08738 -0.48438,1.64258 0.29413,1.11291 0.42882,2.29723 0.74024,3.40234 -4.14399,0.20077 -8.30811,0.0646 -12.44727,-0.1875 -0.70869,-0.0432 -1.41637,-0.11486 -2.12305,-0.18555 0.0528,0.40628 0.10876,0.81211 0.15625,1.21875 0.6517,-0.003 1.3029,0.007 1.95313,0.041 0.0102,0.0302 0.0229,0.0597 0.0332,0.0898 0.30268,-0.003 0.60559,-0.002 0.90821,-0.006 0.001,-0.006 0.003,-0.0117 0.004,-0.0176 0.005,-0.0199 0.079,0.0173 0.0586,0.0176 -0.0208,2.6e-4 -0.0417,-2.5e-4 -0.0625,0 -0.11809,0.51109 -0.22364,1.02472 -0.33594,1.53711 0.43548,1.12835 0.86799,2.25602 1.10547,3.4375 0.0448,0.22314 -0.45216,0.0724 -0.67969,0.0781 -0.82774,0.021 -1.65632,0.0172 -2.48438,0.0137 0.0777,0.94354 0.15522,1.89546 0.22461,2.78125 1.12626,14.3757 0.9546,10.41811 0.10157,23.4082 -0.96006,2.87365 -1.60327,5.87385 -2.88086,8.6211 -2.01119,4.32471 -4.37193,8.36474 -6.95508,12.25781 1.97022,-1.05906 3.98301,-2.27586 6.25195,-3.88867 4.98566,-3.5439 6.17624,-6.00788 9.89844,-10.97071 3.85258,-8.30279 9.43878,-19.07707 11.45312,-28.20312 0.84183,-3.81394 1.17757,-7.73678 1.28907,-11.65039 -0.44439,-2.38961 -1.00485,-4.75689 -1.66602,-7.09571 -0.21682,-0.0181 -0.59399,-0.0581 -0.75,-0.0684 -0.83324,-0.0548 -1.66946,-0.0623 -2.50391,-0.0937 -1.06038,-0.0955 -2.11956,-0.20151 -3.17968,-0.30274 z m -132.25782,7.56055 c 0.15324,0.66761 0.35934,1.32748 0.60352,1.96679 0.0875,-0.59314 0.19462,-1.1916 0.29687,-1.78906 -0.0231,-0.004 -0.0493,-0.008 -0.0723,-0.0117 -0.39817,-0.0693 -0.56922,-0.11348 -0.82813,-0.16601 z m 115.20118,0.91015 c -0.001,0.0824 -3.9e-4,0.13553 -0.002,0.22071 -0.007,0.36577 -0.59366,0.0799 -1.05078,-0.0527 -0.29809,0.0748 -0.66736,0.0798 -1.10547,0.0625 0.18787,0.0121 0.34958,0.0719 0.45508,0.23633 0.0137,0.0214 0.0237,0.0449 0.0371,0.0664 0.107,-0.009 0.6637,-0.0689 0.66406,-0.0645 0.0284,0.34977 0.0433,0.70814 0.0527,1.06641 0.18423,0.0152 0.36802,0.0386 0.55273,0.0469 0.69284,0.0311 1.38741,0.0329 2.08203,0.0254 -0.0621,-0.51667 -0.12743,-1.0339 -0.19922,-1.54883 -0.49523,-0.0231 -0.99082,-0.0409 -1.48632,-0.0586 z m -5.91797,0.0918 c -0.42091,0.43232 -1.35636,0.58792 -1.94922,0.92774 -0.007,-6.3e-4 0.0884,0.007 0.0801,0.006 0.57991,-0.0634 1.23825,-0.1276 1.57226,-0.16407 0.83758,-0.11029 1.67011,-0.25867 2.51172,-0.33203 0.41403,-0.0361 0.94937,-0.26981 1.38086,-0.30469 -0.47868,-0.0239 -1.03448,-0.0685 -1.70703,-0.0879 -0.81315,-0.0194 -1.31304,-0.0311 -1.88867,-0.0449 z m -99.71875,0.47656 c -0.10237,0.29563 -0.18719,0.59615 -0.20703,0.9043 -0.002,0.0238 0.18932,0.0966 0.18164,-0.0156 -0.007,-0.0997 -0.18769,-0.26527 -0.0899,-0.28516 0.16637,-0.0338 0.31018,0.13898 0.46485,0.20898 0.28672,0.13492 0.55421,0.31892 0.85937,0.4043 2.1101,0.59037 4.74827,0.52266 7.12305,0.30859 0.11265,-0.0752 0.324,-0.21651 0.43555,-0.29101 -1.25464,-0.17954 -2.68204,-0.38497 -5.26172,-0.7461 -1.08522,-0.15191 -2.31842,-0.32402 -3.50586,-0.48828 z m -3.61133,1.54102 c -0.8188,1.5706 -1.56498,3.12126 -2.21484,4.68555 0.74106,1.01426 1.55411,1.98588 2.41601,2.92382 3.92425,-2.48182 5.62285,-3.55159 6.39063,-4.06054 -1.11343,-0.11626 -2.21867,-0.31314 -3.30469,-0.64649 -0.37636,-0.11552 -0.70943,-0.33962 -1.06445,-0.50976 -0.89584,-0.53868 -1.33388,-0.64883 -1.89063,-1.57227 -0.1604,-0.26604 -0.26044,-0.54132 -0.33203,-0.82031 z m 23.94531,0.97656 c -0.29633,0.14243 -0.60251,0.28488 -0.89648,0.42774 -4.47997,1.33844 -3.82639,1.35461 -8.55469,1.89648 -0.42235,0.0484 -0.85042,0.0819 -1.27539,0.125 -5.13109,3.43205 -4.44547,2.98927 -10.44336,6.76758 2.25449,2.13268 4.64777,4.12359 6.85352,6.07812 1.65831,0.87121 3.1915,2.0393 4.97461,2.61328 1.21611,0.39149 2.54928,0.26265 3.82617,0.22071 3.08437,-0.10132 6.17022,-0.29831 9.23633,-0.64844 3.21506,-0.36713 7.06017,-0.8649 10.94726,-1.52148 1.86433,-2.17818 3.80528,-4.29106 5.66602,-6.47266 1.20546,-1.41334 2.39017,-2.84347 3.57617,-4.27344 -0.46294,-0.0178 -0.92605,-0.0251 -1.38867,-0.0488 -0.40359,-0.0207 -1.11387,0.27996 -1.20704,-0.11328 -0.30295,-1.27897 -0.52543,-2.18557 -0.67578,-2.89648 -0.0858,-0.005 -0.172,-0.005 -0.25781,-0.01 -1.40137,-0.0861 -2.80193,-0.20354 -4.19726,-0.35937 -2.67894,-0.2992 -2.59185,-0.48558 -4.91407,-0.65625 -0.5955,-0.0438 -1.19229,-0.0405 -1.78906,-0.0606 -0.43261,-0.0436 -3.98174,-0.42441 -4.6875,-0.66211 -1.70564,-0.12732 0.0611,0.005 -2.79297,-0.20898 -1.35049,-0.13462 -1.01877,-0.10152 -2,-0.19727 z m 75.41992,3.23828 c -0.71271,0.074 -1.63122,0.18059 -1.95507,0.20508 -0.57867,0.0438 -1.15872,0.0639 -1.73829,0.0937 0.27918,0.56725 0.52981,1.17647 0.73438,1.87305 1.15501,3.93284 1.16216,8.81872 1.41016,12.74804 0.44975,7.62908 0.16899,9.54085 1.78906,16.38477 0.38057,1.6077 1.46924,3.07646 1.48437,4.72852 0.0516,5.63714 -2.88989,7.95309 -7.26758,11.1914 -3.74389,2.76948 -7.8541,5.00497 -11.78124,7.50781 -14.67236,7.38622 -11.25088,6.78618 -20.49805,8.91993 0.45373,0.0224 0.90677,0.0439 1.35937,0.0527 4.80922,0.0936 9.32053,-1.67309 13.75196,-3.25586 1.78514,-0.70277 3.59994,-1.33557 5.35546,-2.10937 3.60341,-1.58831 7.13288,-3.33854 10.71485,-4.97461 2.33434,-1.06621 4.35932,-1.93587 6.25976,-2.76953 3.95061,-5.37315 7.50996,-10.93676 10.36719,-17.11914 1.17591,-2.54439 1.73721,-5.33099 2.60547,-7.9961 0.64495,-12.04225 0.81285,-8.43071 -0.27539,-22.07226 -0.0782,-0.98073 -0.15916,-2.00385 -0.24414,-3.02735 -4.01409,-0.0274 -8.03054,-0.0783 -12.03125,-0.38086 -0.03,-5.5e-4 -0.0115,5.4e-4 -0.041,0 z m -7.6914,0.51172 c -8.83519,0.48761 -17.67243,0.87324 -26.51172,1.27735 -1.63273,2.47319 -3.40975,4.86321 -5.02344,7.34765 -2.43661,1.27732 -4.72087,2.90346 -7.31055,3.83203 -3.51299,1.25964 -7.91376,2.26566 -12.33984,3.05664 -0.0319,0.0383 -0.0659,0.0749 -0.0977,0.11329 -4.13456,4.98793 -8.03629,10.10831 -11.51953,15.5664 -1.68996,1.68996 -3.25915,3.51093 -5.07031,5.07031 -2.29088,1.97241 -4.76168,3.72647 -7.20703,5.50391 4.19036,3.39818 4.45578,2.75567 9.3457,5.41602 3.68478,2.00469 7.30114,4.13389 10.95117,6.20117 4.10571,2.16256 10.73796,5.98686 16.15821,8.02734 1.76395,-0.36373 3.48588,-0.77563 4.94336,-1.11719 12.88968,-3.02068 6.74033,-1.24707 22.43359,-9.25976 3.28727,-2.10091 13.78441,-7.75336 16.8125,-12.46289 1.8637,-2.89856 -0.3367,-4.12781 -0.98047,-6.53711 -0.63746,-2.38568 -1.09815,-4.82616 -1.38086,-7.2793 -0.38744,-3.36197 -0.41655,-6.75501 -0.625,-10.13281 -0.23678,-3.7515 -0.22457,-8.52696 -1.35742,-12.3125 -0.2104,-0.70307 -0.69094,-1.50803 -1.2207,-2.31055 z m -30.71875,1.41016 c -3.06641,0.0789 -5.6345,0.14123 -8.51172,0.13476 -1.81972,2.18287 -3.62829,4.37523 -5.47266,6.53711 -0.87087,1.02079 -1.76481,2.02225 -2.65625,3.02539 2.74087,-0.60227 5.36909,-1.29353 7.63672,-2.11132 2.32104,-0.83705 4.33978,-2.34914 6.50977,-3.52344 0.99744,-1.66504 1.71898,-2.81323 2.49414,-4.0625 z m -63.77149,3.24804 c -0.01,0.13482 -0.0212,0.26948 -0.0312,0.4043 0.0812,-0.0619 0.14936,-0.11337 0.22852,-0.17383 -0.0641,-0.073 -0.13229,-0.15576 -0.19727,-0.23047 z m 2.65039,2.84961 c -0.97835,0.74748 -1.96183,1.49502 -3.03515,2.29297 -0.16605,3.06824 -0.30364,5.47053 -0.41797,7.67578 3.64831,5.66112 7.47674,11.45233 11.82031,16.39649 1.72524,1.96378 3.61302,3.78419 5.57617,5.51562 0.24096,-0.17357 0.48637,-0.34099 0.72657,-0.51562 2.41899,-1.75868 4.86335,-3.49489 7.1289,-5.44727 1.68882,-1.45537 3.13806,-3.1681 4.70703,-4.75195 2.64727,-4.32108 5.68187,-8.36977 8.85352,-12.31445 -2.6059,0.378 -5.10798,0.69182 -7.28711,0.93359 -2.62344,0.29106 -11.29232,1.28262 -14.99023,0.0137 -2.03292,-0.69758 -3.77198,-2.06149 -5.65821,-3.09179 -3.33471,-2.97043 -5.37012,-4.65947 -7.42383,-6.70704 z m 135.91993,0.42188 c -2.52245,8.86297 -7.54394,18.45867 -11.24415,26.33203 -4.21429,5.52268 -5.3379,7.94133 -10.91796,11.88477 -4.59196,3.24514 -8.15628,4.98164 -12.3086,6.82226 -1.96356,2.63898 -4.00567,5.23644 -6.11133,7.82617 -3.10573,3.81972 -6.47011,7.42626 -9.88867,10.96875 -3.263,3.3813 -9.7209,8.80731 -13.40429,11.9668 8.09845,-1.11702 14.26996,-3.41544 23.4375,-8.14062 10.14709,-5.23007 23.53115,-18.10546 29.58789,-28.46289 7.1413,-12.21211 10.683,-25.74648 10.84961,-39.19727 z m -139.58789,15.72266 c -0.0316,1.99732 -0.0346,4.16978 0.0234,6.89257 0.79462,0.89472 4.40002,3.76283 4.58399,3.92578 1.175,1.04089 2.2649,2.17517 3.4375,3.21876 2.39944,2.13544 3.93799,3.50101 5.3125,4.71093 0.4282,-0.29799 0.85011,-0.60495 1.27734,-0.90429 -1.91015,-1.72352 -3.74796,-3.52932 -5.44141,-5.46094 -3.339,-3.80862 -6.33379,-8.06055 -9.19335,-12.38281 z m 0.26757,11.8457 c 0.049,0.51768 0.10716,1.03377 0.17774,1.54883 0.36248,2.64518 1.22677,4.47476 2.33398,6.8457 0.68415,1.46501 1.40024,2.91434 2.10938,4.36719 1.04983,-0.7162 2.10128,-1.4301 3.14257,-2.15821 0.76868,-0.53748 1.53967,-1.07105 2.31055,-1.60546 -1.30659,-1.15392 -2.59861,-2.29644 -4.73828,-4.20118 -1.11763,-0.99492 -2.155,-2.07825 -3.27344,-3.07226 -0.58475,-0.5197 -1.31422,-1.10903 -2.0625,-1.72461 z m 17.14649,8.40625 c -0.42222,0.2975 -0.84026,0.60066 -1.26367,0.89648 2.75145,2.32397 4.61905,3.68646 11.83203,9.26563 8.81751,4.37423 11.7385,6.93268 21.08398,8.03906 0.20245,0.024 0.42172,0.0229 0.63086,0.0371 -3.95317,-1.9375 -7.89661,-4.15518 -10.73437,-5.65039 -3.59134,-2.03616 -7.14928,-4.13025 -10.77344,-6.10742 -5.43264,-2.96379 -5.78304,-2.31519 -10.77539,-6.48047 z m -4.28906,3.00976 c -1.01832,0.70542 -2.03722,1.40985 -3.05274,2.11914 -1.16961,0.81694 -2.35339,1.61533 -3.5332,2.41797 3.79917,7.01631 7.84154,14.68496 12.30078,21.1875 0.0443,0.0646 0.0921,0.127 0.13672,0.19141 7.0074,4.45316 14.78567,7.90121 23.12109,10.15234 0.12293,0.0332 0.23066,0.0577 0.35156,0.0899 1.07744,0.1272 1.96677,0.22767 3.79493,0.45898 3.10976,0.39347 6.20447,0.93009 9.32617,1.21094 2.14572,0.0168 4.62604,-0.0228 7.71875,-0.11133 1.4683,-0.042 2.79496,-0.10935 4.12304,-0.17773 0.6288,-0.16545 1.24849,-0.35934 1.85157,-0.60743 1.51128,-0.62155 2.71359,-1.82159 4.07031,-2.73242 3.29968,-2.8614 10.28362,-8.7841 13.35352,-11.96875 3.34233,-3.46726 6.63156,-6.99859 9.66601,-10.73828 0.65215,-0.80372 1.29383,-1.608 1.93359,-2.41211 -0.0821,0.0374 -0.14369,0.0618 -0.22656,0.0996 -3.64678,1.66473 -7.24111,3.44353 -10.91015,5.0586 -1.79167,0.78867 -3.64312,1.43195 -5.46485,2.14843 -4.99286,1.77239 -10.00007,3.61607 -15.41797,3.4336 -2.71753,-0.0915 -5.45846,-0.4096 -8.08007,-1.13086 -0.51349,-0.14127 -1.05175,-0.31453 -1.59961,-0.50196 -2.78458,0.51759 -5.62244,0.82427 -8.35743,0.47461 -9.96832,-1.27441 -13.09545,-3.99412 -22.43359,-8.68554 -7.87697,-6.09877 -9.45724,-7.21948 -12.67187,-9.97657 z m -9.53907,6.57227 c -0.84098,0.58805 -1.67763,1.18365 -2.50195,1.79492 -0.26702,0.198 -0.6603,0.52001 -1.02539,0.81445 3.32394,4.05924 7.05675,7.78192 11.14258,11.11915 -2.67378,-4.53633 -5.18674,-9.23845 -7.61524,-13.72852 z"
           id="path4148"
           inkscape:connector-curvature="0"
           inkscape:export-xdpi="90"
           inkscape:export-ydpi="90" />
        <path
           style="opacity:0;fill:#aa4400"
           d="m 251.03516,239.61328 a 59.093925,68.690376 0 0 0 -22.74024,54.125 59.093925,68.690376 0 0 0 59.09375,68.68945 59.093925,68.690376 0 0 0 59.09375,-68.68945 59.093925,68.690376 0 0 0 -19.66601,-51.06445 c -1.74123,-0.0579 -3.48044,-0.1343 -5.2168,-0.26563 -0.03,-5.5e-4 -0.0115,5.4e-4 -0.041,0 -0.71271,0.074 -1.63122,0.18059 -1.95507,0.20508 -1.51753,0.11475 -3.03914,0.16056 -4.5586,0.2461 -9.69424,0.54579 -19.39064,0.95576 -29.08984,1.40234 -6.24928,0.14278 -8.42571,0.26346 -14.14844,0.18359 -1.04951,-0.0147 -2.09825,-0.0575 -3.14648,-0.11133 -0.40359,-0.0207 -1.11388,0.27996 -1.20704,-0.11328 -0.30295,-1.27897 -0.52543,-2.18557 -0.67578,-2.89648 -0.0858,-0.005 -0.172,-0.005 -0.25781,-0.01 -1.40137,-0.0861 -2.80193,-0.20354 -4.19726,-0.35937 -2.67894,-0.2992 -2.59185,-0.48558 -4.91407,-0.65625 -0.5955,-0.0438 -1.19229,-0.0405 -1.78906,-0.0606 -0.40997,-0.0413 -3.64515,-0.38656 -4.58398,-0.625 z"
           id="path5624"
           inkscape:connector-curvature="0"
           inkscape:export-xdpi="90"
           inkscape:export-ydpi="90" />
        <path
           style="opacity:0;fill:#aa4400"
           d="m 348.49805,227.61328 c 0.0507,0.14697 0.0906,0.30089 0.14843,0.44336 -0.31118,3e-5 -0.6224,0.006 -0.93359,0.006 -0.0397,0.0722 -0.0704,0.1486 -0.11523,0.21875 -0.45192,0.70773 -1.66606,0.20521 -2.50196,0.28516 -0.3034,0.029 -0.60323,0.0391 -0.90429,0.0566 -0.11482,0.0657 -0.20876,0.11737 -0.34961,0.19922 -1.56752,0.45249 -3.10728,1.09586 -4.69727,1.51171 0.70483,0.0947 1.41105,0.17981 2.11524,0.2793 6.04746,0.85441 1.2135,0.56941 6.47461,0.89453 0.64224,0.0397 1.58138,-0.46875 1.92968,0.0723 0.0397,0.0617 0.0689,0.12829 0.10547,0.1914 0.36791,-0.0135 0.73633,-0.0156 1.10352,-0.0351 -0.18981,0.53293 -0.33814,1.08738 -0.48438,1.64258 0.29413,1.11291 0.42882,2.29723 0.74024,3.40234 -4.14399,0.20077 -8.30811,0.0646 -12.44727,-0.1875 -1.61037,-0.0981 -3.21153,-0.3247 -4.82226,-0.41602 -0.80523,-0.0456 -1.6119,-0.065 -2.41797,-0.0937 -0.001,0.0824 -3.9e-4,0.13553 -0.002,0.22071 -0.007,0.36577 -0.59366,0.0799 -1.05078,-0.0527 -0.29809,0.0748 -0.66736,0.0798 -1.10547,0.0625 0.18787,0.0121 0.34958,0.0719 0.45508,0.23633 0.0137,0.0214 0.0237,0.0449 0.0371,0.0664 0.107,-0.009 0.6637,-0.0689 0.66406,-0.0645 0.0284,0.34977 0.0433,0.70814 0.0527,1.06641 0.18423,0.0152 0.36802,0.0386 0.55273,0.0469 2.53498,0.11371 5.08701,-0.13111 7.62305,0.002 0.0102,0.0302 0.0229,0.0597 0.0332,0.0898 0.30268,-0.003 0.60559,-0.002 0.90821,-0.006 0.001,-0.006 0.003,-0.0117 0.004,-0.0176 0.005,-0.0199 0.079,0.0173 0.0586,0.0176 -0.0208,2.6e-4 -0.0417,-2.5e-4 -0.0625,0 -0.11809,0.51109 -0.22364,1.02472 -0.33594,1.53711 0.43548,1.12835 0.86799,2.25602 1.10547,3.4375 0.0448,0.22314 -0.45216,0.0724 -0.67969,0.0781 -0.98522,0.025 -1.97151,0.021 -2.95703,0.0156 -5.04666,-0.0278 -10.10811,-0.0313 -15.14258,-0.41211 -0.03,-5.5e-4 -0.0115,5.4e-4 -0.041,0 -0.71271,0.074 -1.63122,0.18059 -1.95507,0.20508 -1.51753,0.11475 -3.03914,0.16056 -4.5586,0.2461 -9.69424,0.54579 -19.39064,0.95576 -29.08984,1.40234 -6.24928,0.14278 -8.42571,0.26346 -14.14844,0.18359 -1.04951,-0.0147 -2.09825,-0.0575 -3.14648,-0.11133 -0.40359,-0.0207 -1.11387,0.27996 -1.20704,-0.11328 -0.30295,-1.27897 -0.52543,-2.18557 -0.67578,-2.89648 -0.0858,-0.005 -0.172,-0.005 -0.25781,-0.01 -1.40137,-0.0861 -2.80193,-0.20354 -4.19726,-0.35937 -2.67894,-0.2992 -2.59185,-0.48558 -4.91407,-0.65625 -0.5955,-0.0438 -1.19229,-0.0405 -1.78906,-0.0606 -0.43261,-0.0436 -3.98174,-0.42441 -4.6875,-0.66211 -1.70564,-0.12732 0.0611,0.005 -2.79297,-0.20898 -0.72533,-0.0723 -0.46078,-0.045 -1.07422,-0.10547 a 58.083771,74.751289 0 0 0 -4.62695,29.22266 58.083771,74.751289 0 0 0 58.08203,74.75 58.083771,74.751289 0 0 0 58.08399,-74.75 58.083771,74.751289 0 0 0 -9.43946,-40.8086 c -0.22205,-0.0208 -0.44399,-0.0413 -0.66601,-0.0625 z m -22.97461,8.5625 c -0.42091,0.43232 -1.35636,0.58792 -1.94922,0.92774 -0.007,-6.3e-4 0.0884,0.007 0.0801,0.006 0.57991,-0.0634 1.23825,-0.1276 1.57226,-0.16407 0.83758,-0.11029 1.67011,-0.25867 2.51172,-0.33203 0.41403,-0.0361 0.94937,-0.26981 1.38086,-0.30469 -0.47868,-0.0239 -1.03448,-0.0685 -1.70703,-0.0879 -0.81315,-0.0194 -1.31304,-0.0311 -1.88867,-0.0449 z"
           id="path5626"
           inkscape:connector-curvature="0"
           inkscape:export-xdpi="90"
           inkscape:export-ydpi="90" />
        <path
           style="opacity:1;fill:#aa4400;stroke:none;stroke-opacity:1"
           d="m 270.82776,213.45591 a 114.65231,114.65231 0 0 0 -114.65234,114.65234 114.65231,114.65231 0 0 0 3.07031,25.73828 c 1.32529,0.0203 2.65087,0.0794 4.05078,0.25195 1.46251,0.18027 2.90649,0.49887 4.34961,0.79688 1.30598,0.26969 2.5783,0.70447 3.89649,0.90625 3.89067,0.59557 6.72169,0.46595 10.6914,0.50195 1.68515,0.0211 3.36946,0.0508 5.05469,0.0645 5.34627,0.0434 7.75548,-0.0576 13.07422,0.28515 7.20836,0.46462 3.04028,0.50199 9.60742,0.85938 1.41996,0.0773 2.84405,0.0725 4.26563,0.10937 6.88483,0.83721 13.825,0.7983 20.73632,1.21289 12.09311,0.72542 -2.0915,0.14883 14.00586,0.67578 10.09772,0.31423 20.19558,-0.25247 30.29297,-0.14843 3.5946,-0.21732 7.13429,0.46656 10.6875,0.82812 1.56729,0.15949 3.14836,0.15893 4.71094,0.35938 1.74163,0.22342 3.45804,0.6179 5.18945,0.91015 1.41326,0.23855 2.8291,0.45585 4.24414,0.6836 1.44992,0.22283 2.90768,0.35464 4.36719,0.45898 0.45203,-0.0389 0.90231,-0.0769 1.35547,-0.11133 0.94106,0.0278 1.8822,0.15536 2.82227,0.10352 0.70384,-0.0388 1.38416,-0.26859 2.08007,-0.38086 2.58132,-0.41644 1.86453,-0.28754 4.80078,-0.30469 3.05682,-0.0153 6.10146,0.01 9.1543,0.15821 1.86822,-0.21209 3.74748,-0.55702 5.625,-0.65626 1.84312,-0.0974 3.70025,0.0771 5.54492,0.0391 2.84869,0.006 5.70151,-0.38153 8.54688,-0.01 0.81769,0.10118 3.39061,0.42997 4.15625,0.48047 1.82128,0.12015 3.66527,-0.10698 5.48828,0.0195 2.64037,0.0225 5.26257,-0.0911 7.90039,-0.13086 0.8781,0.0487 1.75893,0.0669 2.63477,0.14649 0.63965,0.0581 1.27208,0.17686 1.9082,0.26562 0.22538,0.0645 0.44385,0.15918 0.67578,0.19336 0.53704,0.0791 1.12181,-0.11187 1.66016,0.0293 1.9208,0.1964 3.32592,-0.006 5.23437,-0.50195 0.77457,0.0166 1.54874,-0.008 2.32227,-0.0371 a 114.65231,114.65231 0 0 0 5.09961,-33.7967 114.65231,114.65231 0 0 0 -114.65235,-114.65234 z m 86.19532,189.86718 c -0.053,0.0325 -0.11409,0.0614 -0.16797,0.0937 -0.002,0.008 -0.002,0.0171 -0.004,0.0254 -0.01,0.0441 -0.0536,0.0708 -0.11328,0.0898 0.0337,0.004 0.0557,0.007 0.0918,0.0117 a 114.65231,114.65231 0 0 0 0.19336,-0.22071 z m -137.26563,27.28125 a 114.65231,114.65231 0 0 0 0.0684,0.0312 c 0.0658,0.002 0.13149,0.006 0.19727,0.008 0.0141,-0.01 0.0403,-0.0273 0.0547,-0.0371 -0.10676,-4.1e-4 -0.21354,-0.002 -0.32031,-0.002 z"
           id="path5634"
           inkscape:connector-curvature="0"
           inkscape:export-xdpi="90"
           inkscape:export-ydpi="90" />
        <path
           sodipodi:type="star"
           style="opacity:1;fill:#aa4400;fill-opacity:0.97109824;fill-rule:evenodd;stroke:none;stroke-opacity:1"
           id="path5706"
           sodipodi:sides="3"
           sodipodi:cx="147.85715"
           sodipodi:cy="410.21936"
           sodipodi:r1="43.84539"
           sodipodi:r2="66.432411"
           sodipodi:arg1="1.5549171"
           sodipodi:arg2="2.6021147"
           inkscape:flatsided="false"
           inkscape:rounded="0.22"
           inkscape:randomized="0"
           d="m 148.55335,454.05922 c -12.86965,0.20438 -51.081859,1.32894 -57.693681,-9.71432 -6.611823,-11.04325 12.425111,-44.19491 18.682941,-55.44254 6.25783,-11.24764 24.39004,-44.90266 37.25969,-45.10704 12.86965,-0.20437 32.06136,32.85792 38.67318,43.90118 6.61182,11.04326 26.69182,43.57372 20.43399,54.82135 -6.25783,11.24764 -44.48647,11.337 -57.35612,11.54137 z"
           inkscape:transform-center-x="-0.23351654"
           inkscape:transform-center-y="-16.708723"
           transform="matrix(0.65384378,0,0,-1.0252098,138.11836,802.68431)"
           inkscape:export-xdpi="90"
           inkscape:export-ydpi="90" />
        <path
           sodipodi:type="star"
           style="opacity:1;fill:#aa4400;fill-opacity:0.97109824;fill-rule:evenodd;stroke:none;stroke-opacity:1"
           id="path5706-5"
           sodipodi:sides="3"
           sodipodi:cx="147.85715"
           sodipodi:cy="410.21936"
           sodipodi:r1="43.84539"
           sodipodi:r2="66.432411"
           sodipodi:arg1="1.5549171"
           sodipodi:arg2="2.6021147"
           inkscape:flatsided="false"
           inkscape:rounded="0.22"
           inkscape:randomized="0"
           d="m 148.55335,454.05922 c -12.86965,0.20438 -51.081859,1.32894 -57.693681,-9.71432 -6.611823,-11.04325 12.425111,-44.19491 18.682941,-55.44254 6.25783,-11.24764 24.39004,-44.90266 37.25969,-45.10704 12.86965,-0.20437 32.06136,32.85792 38.67318,43.90118 6.61182,11.04326 26.69182,43.57372 20.43399,54.82135 -6.25783,11.24764 -44.48647,11.337 -57.35612,11.54137 z"
           inkscape:transform-center-x="-0.23351654"
           inkscape:transform-center-y="-16.708723"
           transform="matrix(0.65384378,0,0,-1.0252098,97.325072,801.41219)"
           inkscape:export-xdpi="90"
           inkscape:export-ydpi="90" />
        <path
           sodipodi:type="star"
           style="opacity:1;fill:#aa4400;fill-opacity:0.97109824;fill-rule:evenodd;stroke:none;stroke-opacity:1"
           id="path5706-5-0-7"
           sodipodi:sides="3"
           sodipodi:cx="147.85715"
           sodipodi:cy="410.21936"
           sodipodi:r1="43.84539"
           sodipodi:r2="66.432411"
           sodipodi:arg1="1.5549171"
           sodipodi:arg2="2.6021147"
           inkscape:flatsided="false"
           inkscape:rounded="0.22"
           inkscape:randomized="0"
           d="m 148.55335,454.05922 c -12.86965,0.20438 -51.081859,1.32894 -57.693681,-9.71432 -6.611823,-11.04325 12.425111,-44.19491 18.682941,-55.44254 6.25783,-11.24764 24.39004,-44.90266 37.25969,-45.10704 12.86965,-0.20437 32.06136,32.85792 38.67318,43.90118 6.61182,11.04326 26.69182,43.57372 20.43399,54.82135 -6.25783,11.24764 -44.48647,11.337 -57.35612,11.54137 z"
           inkscape:transform-center-x="-0.23351654"
           inkscape:transform-center-y="-16.708723"
           transform="matrix(0.65384378,0,0,-1.0252098,178.75364,804.26932)"
           inkscape:export-xdpi="90"
           inkscape:export-ydpi="90" />
        <path
           sodipodi:type="star"
           style="opacity:1;fill:#aa4400;fill-opacity:0.97109824;fill-rule:evenodd;stroke:none;stroke-opacity:1"
           id="path5706-5-0-7-1"
           sodipodi:sides="3"
           sodipodi:cx="147.85715"
           sodipodi:cy="410.21936"
           sodipodi:r1="43.84539"
           sodipodi:r2="66.432411"
           sodipodi:arg1="1.5549171"
           sodipodi:arg2="2.6021147"
           inkscape:flatsided="false"
           inkscape:rounded="0.22"
           inkscape:randomized="0"
           d="m 148.55335,454.05922 c -12.86965,0.20438 -51.081859,1.32894 -57.693681,-9.71432 -6.611823,-11.04325 12.425111,-44.19491 18.682941,-55.44254 6.25783,-11.24764 24.39004,-44.90266 37.25969,-45.10704 12.86965,-0.20437 32.06136,32.85792 38.67318,43.90118 6.61182,11.04326 26.69182,43.57372 20.43399,54.82135 -6.25783,11.24764 -44.48647,11.337 -57.35612,11.54137 z"
           inkscape:transform-center-x="-0.23351654"
           inkscape:transform-center-y="-16.708723"
           transform="matrix(0.65384378,0,0,-1.0252098,215.18222,804.26933)"
           inkscape:export-xdpi="90"
           inkscape:export-ydpi="90" />
        <rect
           style="opacity:1;fill:#aa4400;fill-opacity:0.97109824;fill-rule:evenodd;stroke:none;stroke-opacity:1"
           id="rect5768"
           width="229.49493"
           height="30.532263"
           x="155.92351"
           y="328.98767"
           inkscape:export-xdpi="90"
           inkscape:export-ydpi="90" />
        <path
           sodipodi:type="star"
           style="opacity:1;fill:#aa4400;fill-opacity:0.97109824;fill-rule:evenodd;stroke:none;stroke-opacity:1"
           id="path5706-5-0-7-1-8"
           sodipodi:sides="3"
           sodipodi:cx="147.85715"
           sodipodi:cy="410.21936"
           sodipodi:r1="43.84539"
           sodipodi:r2="66.432411"
           sodipodi:arg1="1.5549171"
           sodipodi:arg2="2.6021147"
           inkscape:flatsided="false"
           inkscape:rounded="0.22"
           inkscape:randomized="0"
           d="m 148.55335,454.05922 c -12.86965,0.20438 -51.081859,1.32894 -57.693681,-9.71432 -6.611823,-11.04325 12.425111,-44.19491 18.682941,-55.44254 6.25783,-11.24764 24.39004,-44.90266 37.25969,-45.10704 12.86965,-0.20437 32.06136,32.85792 38.67318,43.90118 6.61182,11.04326 26.69182,43.57372 20.43399,54.82135 -6.25783,11.24764 -44.48647,11.337 -57.35612,11.54137 z"
           inkscape:transform-center-x="-0.23351654"
           inkscape:transform-center-y="-16.708723"
           transform="matrix(0.65384378,0,0,-1.0252098,250.09556,803.34584)"
           inkscape:export-xdpi="90"
           inkscape:export-ydpi="90" />
        <path
           style="opacity:0.97000002;fill:#aa4400;fill-opacity:1;fill-rule:nonzero;stroke:#000000;stroke-width:0.71399999;stroke-miterlimit:4;stroke-dasharray:none;stroke-opacity:1"
           d="m 270.75022,448.90544 c -3.92621,-4.07338 -8.15374,-12.04877 -13.35276,-25.19046 -1.34624,-3.40295 -2.58741,-6.18718 -2.75814,-6.18718 -0.17073,0 -1.18975,2.10238 -2.2645,4.67195 -6.61169,15.80765 -13.27473,26.46069 -17.16001,27.43583 -4.53559,1.13836 -10.43215,-7.5732 -18.23709,-26.94345 -1.59784,-3.96551 -2.97338,-7.14183 -3.05674,-7.05846 -0.0834,0.0834 -1.26945,2.75966 -2.63575,5.94734 -6.91264,16.12765 -13.1496,25.99238 -17.05304,26.97208 -5.56668,1.39715 -13.85947,-13.96412 -25.47433,-47.18773 -5.42664,-15.52258 -8.27181,-24.72768 -10.06923,-32.57742 -0.89052,-3.88909 -1.86588,-7.92152 -2.16748,-8.96097 -0.78896,-2.71912 -0.1338,-39.36613 0.82854,-46.34488 1.82618,-13.24323 5.19694,-24.27452 10.93904,-35.79958 8.48578,-17.03193 19.27777,-30.08462 34.09322,-41.23505 14.82972,-11.16118 33.1165,-18.72606 51.9558,-21.49312 8.12203,-1.19294 22.27495,-1.42336 29.83083,-0.48568 44.07692,5.46995 80.94651,35.30505 94.89554,76.79007 5.08535,15.12405 5.96078,21.82314 6.13833,46.97209 0.14828,21.00298 0.002,23.02367 -2.35406,32.57742 -3.74012,15.16436 -17.04551,50.44327 -24.48115,64.91114 -5.61165,10.91885 -10.02488,15.7173 -13.37985,14.54775 -3.21176,-1.11963 -8.00191,-8.35249 -12.81821,-19.35481 -1.33766,-3.05571 -2.57821,-5.72229 -2.7568,-5.92574 -0.17858,-0.20344 -1.34013,1.9416 -2.5812,4.76676 -4.32028,9.83461 -9.84407,18.61746 -13.03094,20.71928 -0.74107,0.48875 -2.01421,0.89013 -2.8292,0.89196 -3.24519,0.007 -8.58252,-7.66897 -14.04495,-20.19972 -1.51369,-3.4724 -2.91189,-6.75821 -3.10712,-7.3018 -0.27179,-0.75678 -0.98531,0.42654 -3.04553,5.05076 -6.5032,14.59664 -12.11722,22.45409 -16.04308,22.45409 -1.26121,0 -2.11692,-0.52942 -3.98014,-2.46247 z"
           id="path6294"
           inkscape:connector-curvature="0"
           inkscape:export-xdpi="90"
           inkscape:export-ydpi="90" />
        <path
           style="opacity:0.97000002;fill:#aa4400;fill-opacity:1;fill-rule:nonzero;stroke:#000000;stroke-width:0.36062446;stroke-miterlimit:4;stroke-dasharray:none;stroke-opacity:1"
           d="m 272.02293,449.25894 c -3.78705,-3.32508 -7.29812,-9.57964 -13.13439,-23.39738 -1.99465,-4.72247 -3.90533,-8.5863 -4.24596,-8.5863 -0.34064,0 -2.25243,3.63655 -4.24842,8.08122 -5.8783,13.08976 -11.11981,21.50604 -14.47371,23.24041 -1.39173,0.71969 -1.67903,0.71405 -3.32136,-0.0653 -3.51891,-1.66983 -8.81278,-10.82872 -15.36586,-26.58438 -1.47313,-3.54185 -2.92704,-6.43973 -3.23092,-6.43973 -0.30388,0 -2.11978,3.46609 -4.03533,7.70242 -4.01157,8.87176 -7.55374,15.45477 -10.72335,19.92899 -2.59972,3.66975 -3.89428,4.69348 -5.93521,4.69348 -3.08234,0 -7.60181,-6.33951 -12.96256,-18.18275 C 173.56187,414.6621 163.66,386.10688 158.80347,367.52524 l -1.91411,-7.32361 0.0934,-18.18274 c 0.10664,-20.76798 0.55754,-27.6613 2.40677,-36.79433 3.44406,-17.00962 12.2211,-35.40134 23.65793,-49.57372 7.50024,-9.29419 19.94844,-19.85594 30.56345,-25.93175 19.1611,-10.9674 38.85483,-15.77193 61.87145,-15.0943 29.04799,0.8552 56.37634,13.13496 77.41281,34.78478 11.80442,12.1486 20.38317,26.43467 25.98126,43.26624 4.74786,14.27519 5.53125,21.08509 5.56844,48.40536 0.024,17.61943 -0.0636,19.69002 -1.03513,24.487 -2.4106,11.90184 -10.08405,34.34411 -18.80218,54.99008 -8.63924,20.45914 -15.0734,30.15403 -19.30698,29.09147 -2.84902,-0.71506 -7.4448,-7.55503 -12.38972,-18.43981 -1.58876,-3.49718 -3.17554,-6.35851 -3.52619,-6.35851 -0.35065,0 -2.59911,3.87331 -4.99659,8.60736 -6.24947,12.34016 -10.14739,17.39586 -13.41701,17.40217 -1.41114,0.003 -5.37512,-4.32971 -7.91232,-8.64777 -1.2037,-2.04858 -3.70871,-7.12674 -5.56668,-11.28479 -1.85797,-4.15805 -3.62182,-7.64132 -3.91968,-7.74061 -0.29785,-0.0993 -2.33763,3.53004 -4.53284,8.06517 -5.45375,11.267 -8.28376,15.66631 -11.88386,18.47367 -1.95639,1.5256 -2.96745,1.43348 -5.13273,-0.46767 z"
           id="path6296"
           inkscape:connector-curvature="0"
           inkscape:export-xdpi="90"
           inkscape:export-ydpi="90" />
        <path
           style="opacity:0.97000002;fill:url(#linearGradient6308);fill-opacity:1;fill-rule:nonzero;stroke:none;stroke-width:0.36062446;stroke-miterlimit:4;stroke-dasharray:none;stroke-opacity:1"
           d="m 272.25038,448.47133 c -3.32995,-2.80197 -6.06493,-7.76063 -14.25886,-25.85209 -1.43676,-3.17224 -2.90213,-5.86368 -3.25639,-5.98099 -0.41481,-0.13736 -2.17678,2.97856 -4.94964,8.7531 -8.29777,17.28027 -12.97587,23.77306 -16.35574,22.70033 -1.47855,-0.46927 -4.71277,-4.26848 -7.12531,-8.37003 -1.21593,-2.06722 -4.14926,-8.09413 -6.51851,-13.39315 -2.36925,-5.29902 -4.66267,-10.165 -5.09649,-10.81328 l -0.78877,-1.1787 -1.27868,2.22698 c -0.70327,1.22484 -2.37816,4.61347 -3.72197,7.53029 -4.97165,10.79122 -11.12212,21.01907 -13.3599,22.2167 -3.1424,1.68176 -6.15251,-0.81681 -10.55243,-8.75919 -7.4429,-13.4353 -19.38593,-46.23765 -26.0475,-71.54128 -1.71566,-6.51681 -1.79421,-7.18731 -1.7752,-15.15229 0.0428,-17.93953 0.89034,-36.43128 1.94453,-42.42641 4.00968,-22.80286 15.38483,-44.81741 31.31739,-60.60915 16.32412,-16.17984 35.86285,-26.87522 56.61856,-30.99265 9.20515,-1.82608 12.10807,-2.07297 24.24366,-2.06187 13.73734,0.0126 20.08939,0.80938 30.74557,3.85688 25.55263,7.30763 48.44989,24.08101 63.29979,46.37023 7.70953,11.57176 14.71692,29.02046 17.13986,42.67895 1.10833,6.24784 1.16548,7.75293 1.17951,31.06219 l 0.0147,24.4962 -1.43881,5.55584 c -5.7708,22.28344 -20.67087,60.09582 -28.67501,72.76948 -2.36635,3.74686 -6.05252,7.2851 -7.58966,7.2851 -2.51362,0 -7.39708,-6.92562 -12.46502,-17.67766 -1.37482,-2.91682 -2.86304,-5.75787 -3.30713,-6.31346 -0.80138,-1.00256 -0.81467,-1.00092 -1.76929,0.21837 -0.52901,0.67569 -2.59204,4.33935 -4.5845,8.14148 -4.2428,8.09637 -6.6716,11.90896 -9.33435,14.65257 -2.52127,2.59782 -3.76083,2.56739 -6.42282,-0.15772 -3.04372,-3.11588 -4.97338,-6.34099 -9.76736,-16.32455 -2.73961,-5.70529 -4.50259,-8.82098 -4.91569,-8.68741 -0.35425,0.11455 -2.71742,4.21816 -5.25149,9.11916 -5.59295,10.817 -7.16519,13.3154 -10.05637,15.98041 -2.62917,2.42348 -3.62816,2.53938 -5.84073,0.67762 z"
           id="path6300"
           inkscape:connector-curvature="0"
           inkscape:export-xdpi="90"
           inkscape:export-ydpi="90" />
      </g>
    </g>
  </g>
  <g
     inkscape:groupmode="layer"
     id="layer3"
     inkscape:label="Layer 3" />
  <g
     inkscape:groupmode="layer"
     id="layer5"
     inkscape:label="Layer 5" />
</svg>
